<?xml version="1.0" encoding="utf-8"?>
<!-- Generator: Adobe Illustrator 28.0.0, SVG Export Plug-In . SVG Version: 6.00 Build 0)  -->
<svg version="1.1" id="Calque_2_00000096022113112473899700000004170102837703035042_"
	 xmlns="http://www.w3.org/2000/svg" xmlns:xlink="http://www.w3.org/1999/xlink" x="0px" y="0px" viewBox="0 0 448 224"
	 style="enable-background:new 0 0 448 224;" xml:space="preserve">
<style type="text/css">
	.st0{fill:#2E2E2E;}
	.st1{fill:#FDFDFD;}
	.st2{fill:#393939;}
	.st3{fill:#373737;}
	.st4{fill:#333333;}
	.st5{fill:#363636;}
	.st6{fill:#353535;}
	.st7{fill:#484848;}
	.st8{fill:#F9F9F9;}
	.st9{fill:#FBFBFB;}
	.st10{fill:#343434;}
	.st11{fill:#FAFAFA;}
	.st12{fill:#EFEFEF;}
	.st13{fill:#B6B6B6;}
	.st14{fill:#313131;}
	.st15{fill:#303030;}
	.st16{fill:#2F2F2F;}
	.st17{fill:#3E3E3E;}
	.st18{fill:#323232;}
	.st19{fill:#3F3F3F;}
	.st20{fill:#666666;}
	.st21{fill:#ECECEC;}
	.st22{fill:#DDDDDD;}
	.st23{fill:#F6F6F6;}
	.st24{fill:#F7F7F7;}
	.st25{fill:#E9E9E9;}
	.st26{fill:#FCFCFC;}
	.st27{fill:#D7D7D7;}
</style>
<g>
	<path class="st0" d="M118,0c2.4,2.3,3.1,4.8,2.3,8.4c-1.8,8.1-2.9,16.3-4.4,24.5c-0.8,4.3-1.9,5.5-6.2,5.5c-18.1,0-36.2,0-54.4,0
		c-4.3,0-5.6-1.2-6.3-5.4c-1.4-8.2-2.6-16.4-4.3-24.5C44,5,44.7,2.4,47,0h4c2.4,1.1,3.7,2.9,4.4,5.6c1.5,5.3,5.7,8.2,11,8
		c5.4-0.2,9.1-3.2,10.2-8.9c0.5-2.7,2-4,4.3-4.7h3c2.7,0.7,3.9,2.5,4.5,5.2c1.3,5.6,5.3,8.5,10.8,8.4c5.8-0.1,9.2-2.6,10.5-8.4
		c0.6-2.6,2.1-4,4.2-5.1L118,0L118,0z"/>
	<path class="st1" d="M114,0c-1.6,2-3.2,4-3.1,6.9c0,2.5-1.6,4.2-3.6,5.6c-4.4,3-11.5,3.1-15.9,0.1c-2.5-1.7-3.9-4.1-4-7
		C87.3,2.9,86,1.4,84,0H114z"/>
	<path class="st1" d="M81,0c-1.6,1.4-3.1,2.7-3.2,5.2c-0.2,5.2-3.3,7.8-8.2,9.1c-3.6,0.9-6.8,0.5-10.1-0.9c-2.9-1.2-5-3.4-5.3-6.6
		C54.1,4,52.9,1.9,51,0L81,0L81,0z"/>
	<path class="st2" d="M190,224c-1.3-5.2-0.5-10.6-0.5-15.9c0-0.8-0.1-1.8,1-2c1.1-0.3,2.3-0.3,3.1,0.9c1.4,2.2,2.9,4.4,4.7,7.1
		c1.6-2.3,3-4.2,4.1-6.3c0.9-1.6,2.1-2.2,3.7-1.7c1.5,0.4,0.9,1.9,0.9,2.9c0,5,0,10,0,15h-3c-2.1-2.6-0.9-5.7-1.3-8.5
		c-4.2,5.1-5.4,5-8.6-0.7c-0.2,3.2,1.4,6.9-2.1,9.3L190,224L190,224z"/>
	<path class="st3" d="M276,224c0-5.1,0.1-10.3,0.1-15.4c0-1.9,0.6-2.7,2.5-2.6c2,0.1,4-0.1,6,0.1c4.8,0.3,6.4,2.9,4.5,7.3
		c-0.3,0.7-0.8,0.9,0,1.9c3.1,3.9,2.8,5.3-1.5,8.1c-0.2,0.2-0.4,0.5-0.6,0.7L276,224L276,224z"/>
	<path class="st4" d="M233,224c-0.1-5-0.1-10-0.1-14.9c0-1-0.6-2.4,0.9-3c1.6-0.5,2.4,0.6,3.3,1.7c1.8,2.4,3.6,4.7,5.5,7.1
		c0.6,0.7,0.9,1.8,2.4,1.9c0-2.8,0-5.6,0-8.4c0-1.2-0.2-2.4,1.7-2.3c1.8,0.1,1.5,1.5,1.5,2.5c0,5.1-0.1,10.3-0.2,15.4h-3
		c-3.6-2.7-5.9-6.5-8.4-9.9c0.8,3.3,1.3,6.6-0.6,9.9H233z"/>
	<path class="st4" d="M217,224c-3.9-2.1-6.7-4.8-6.3-9.7c0.3-4,2.9-7.4,6.7-8.3c4.2-1,8.4,0.6,10.5,3.9c2.1,3.3,1.7,8.2-1.1,11.1
		c-1.1,1.1-2.5,2-3.8,3H217z"/>
	<path class="st4" d="M330,224c-0.1-5.1-0.1-10.3-0.2-15.4c0-0.9-0.4-2.1,1-2.5c1.3-0.4,2.2,0.3,3,1.3c1.7,2.2,3.4,4.5,5.2,6.7
		c0.8,1,1.2,2.4,3.1,2.8c0-2.9,0-5.7,0-8.4c0-1.2-0.2-2.4,1.6-2.4c1.8,0.1,1.5,1.5,1.5,2.5c0,5.1-0.1,10.3-0.2,15.4h-2
		c-4.6-2.1-6.5-6.9-9.3-9.6c0.9,3,1.2,6.3-0.7,9.6L330,224L330,224z"/>
	<path class="st5" d="M448,193c-3.6-0.1-7.2-0.2-10.9-0.2c-1.7,0-2.4-0.6-2.4-2.3c0-4.4,0.1-8.9,0-13.4c0-1.8,0.8-2.2,2.4-2.2
		c3.6,0.1,7.2,0,10.9,0v3c-1.9,1.9-4.6,0.9-7,1.9c2.1,1.7,6.3-0.3,6.3,3.6c-0.1,4.4-5,1.6-7.1,4.1c2.4,1.8,5.7,0.2,7.7,2.4L448,193
		L448,193z"/>
	<path class="st6" d="M309,224c-0.4-2.7,1.4-4.7,2.3-7c1.1-2.9,2.5-5.8,3.8-8.6c0.5-1.2,0.8-2.5,2.6-2.5c1.8,0.1,2.1,1.4,2.6,2.6
		c2.2,5.2,4.5,10.3,6.7,15.5h-3c-6.3-5.1-6.9-5.1-12,0L309,224L309,224z"/>
	<path class="st6" d="M355,224c-3.8-2.2-6.5-4.9-6.1-9.8c0.3-3.5,1.8-6,4.9-7.5c3.4-1.5,6.8-1.4,9.9,0.7c0.4,0.3,1.2,0.7,0.8,1.5
		c-0.4,0.8-1.1,1.4-2,1.2c-0.9-0.2-1.8-0.9-2.7-1.2c-2.8-0.7-5.2,0.1-6.6,2.2c-1.6,2.5-1.4,5.6,0.5,7.8c1.7,1.9,4.1,2.4,6.8,1.4
		c1.2-0.4,2.6-2.6,3.7-0.4c1.2,2.3-1.4,2.4-2.6,3.2c-0.3,0.2-0.5,0.5-0.7,0.7L355,224L355,224z"/>
	<path class="st7" d="M294,224c0-5.3,0.1-10.5,0.1-15.8c0-1.7,0.7-2.4,2.4-2.2c1.3,0.2,1.3,1.2,1.3,2.2c0,3,0,5.9,0,8.9
		c0,3.6,0.1,3.6,3.9,3.7c0.8,0,1.7,0.1,2.5,0c2.8-0.5,3,1.1,2.8,3.2H294L294,224z"/>
	<path class="st8" d="M192,224c1.3-1.8,0.7-3.9,0.8-5.8c0.1-1.8,0-3.6,0-5.9c2.6,2,3.2,5.1,5.7,6.7c1.6-2.2,3.1-4.4,5.2-7.4
		c0.1,4.8,0.2,8.6,0.3,12.4L192,224L192,224z"/>
	<path class="st9" d="M448,190c-2.6,0-5.3-0.1-7.9-0.1c-1.9,0.1-2.2-0.9-2.2-2.4c0-1.5,0.3-2.5,2.1-2.4c1.8,0.1,3.6,0,5.4,0
		c0.7,0,1.3-0.3,1.3-1.1c0-0.9-0.2-1.7-1.3-1.7c-2-0.1-4-0.1-5.9-0.1c-1.7,0-1.6-1.2-1.6-2.4c0-1.2,0.4-1.9,1.6-1.9
		c2.8,0,5.6,0.1,8.4,0.1V190z"/>
	<path class="st10" d="M257,224c0-4.1-0.1-8.3,0-12.4c0-1.9-0.5-2.8-2.5-2.6c-0.6,0.1-1.3,0-2-0.1c-0.7-0.1-1.2-0.4-1.2-1.2
		c-0.1-1,0.3-1.6,1.3-1.6c4,0,8,0,11.9,0c1,0,1.4,0.7,1.3,1.7c0,0.8-0.5,1.1-1.2,1.2c-1.4,0.3-3.4-0.7-4.1,0.7
		c-0.7,1.4-0.3,3.2-0.4,4.9c-0.1,3.1-0.1,6.3-0.1,9.4L257,224L257,224z"/>
	<path class="st11" d="M333,224v-12.3c3.7,4.5,6.8,8.4,10,12.3H333z"/>
	<path class="st9" d="M236,224v-12.8c3.2,5,7.1,8.2,9,12.8H236z"/>
	<path class="st12" d="M312,224c0-1.9,0.5-3.8,2.3-4.4c2.2-0.7,4.7-0.7,6.8,0c1.8,0.6,1.7,3,2.8,4.4L312,224L312,224z"/>
	<path class="st13" d="M0.8,159.1H0.4L0,159v-4C1.5,156.1,0.9,157.7,0.8,159.1z"/>
	<path class="st0" d="M231.9,66.8c0-8.5,0.1-17-0.1-25.5c0-2.4,0.6-3.3,3.1-3.1c4,0.2,8,0,12,0.1c3.7,0,3.8,0.1,3.8,4
		c0,14.5,0,29,0,43.5c0,3.2,0.1,6.3,1.1,9.4c2.5,7.7,7.8,11.8,15.8,12c12.2,0.4,19.2-5.9,19.4-18.2c0.3-14.5,0.1-29,0.1-43.5
		c0-1.3,0.1-2.7,0-4c-0.2-2.3,0.6-3.3,3.1-3.2c4.3,0.2,8.7,0.2,13,0c2.3-0.1,2.9,0.8,2.8,2.9c-0.1,3.8,0,7.7,0,11.5
		c0,12.2-0.1,24.3,0,36.5c0,3.5-0.6,7-1.4,10.3c-3.6,14.1-13,22.1-27.1,24.3c-7.1,1.1-14.3,1.1-21.3-0.8
		c-12.6-3.4-20.1-11.7-23.1-24.2c-1-4.1-1.1-8.2-1.1-12.4C231.9,79.8,231.9,73.3,231.9,66.8L231.9,66.8z"/>
	<path class="st0" d="M358.5,38.3c10.3,0,20.6,0,31,0c3.7,0,3.7,0.1,3.8,3.9c0,3.5-0.1,7,0,10.5c0.1,2.3-0.6,3.2-3.1,3.2
		c-5.8-0.2-11.6,0-17.5,0c-1,0-2,0-3,0c-1.6-0.1-2.5,0.5-2.4,2.3c0.1,1.2,0,2.3,0,3.5c0,19.2,0,38.3,0,57.4c0,3.9,0.7,4.1-4,4.1
		c-3.8,0-7.7-0.1-11.5,0c-2.4,0.1-3.1-0.7-3.1-3.1c0.1-10.7,0-21.3,0-32c0-9.7,0-19.3,0-29c0-3.2-0.1-3.3-3.3-3.3
		c-6.5,0-13-0.1-19.5,0c-2.4,0-3.2-0.7-3.1-3.1c0.2-3.8,0.2-7.7,0-11.5c-0.1-2.5,1-3,3.2-3C336.8,38.3,347.6,38.3,358.5,38.3
		L358.5,38.3z"/>
	<path class="st0" d="M208.2,81c0,12.8,0,25.6,0,38.4c0,3.6-0.1,3.6-3.4,3.6c-4.2,0-8.3-0.1-12.5,0c-1.8,0-2.8-0.5-2.6-2.5
		c0.1-2.2,0-4.3,0-6.5c0-23.3,0-46.6,0-69.9c0-1,0.1-2,0-3c-0.2-2,0.5-3.1,2.8-3c4.3,0.1,8.6,0.1,13,0c2.2-0.1,2.9,0.7,2.9,2.9
		c-0.1,7.2,0,14.3,0,21.5C208.2,68.7,208.2,74.9,208.2,81L208.2,81z"/>
	<path class="st0" d="M281.8,155.4c-2.2-3.2-4.1-6-6.8-9.9c0,5.2-0.1,9.2,0,13.2c0.1,2.2-1,2.4-2.7,2.4c-1.9,0.1-2.6-0.6-2.6-2.6
		c0.1-6.2,0-12.3,0.1-18.5c0-1.2-0.8-3,1.3-3.1c1.9-0.1,4-1,5.4,1.3c1.6,2.7,3.3,5.3,5.2,8.2c2.3-1.9,3.5-4.3,4.6-6.6
		c1.4-2.8,3.4-3.2,6.1-3c1.3,0.1,1.8,0.6,1.8,1.8c0,6.8,0,13.6,0,20.5c0,2-1.2,2-2.6,2c-1.3,0-2.7,0.2-2.7-1.9c0.1-4.2,0-8.3,0-13
		C285.9,148.9,284.7,152.4,281.8,155.4L281.8,155.4z"/>
	<path class="st14" d="M317.2,148.3c0.8,0.8,1.8,1.4,2.5,2.3c2.4,3.2,1.4,7.4-2.2,9.3c-1.5,0.8-3.1,1.2-4.8,1.1c-3.5,0-7-0.1-10.5,0
		c-1.7,0.1-2.3-0.6-2.3-2.3c0.1-6.5,0.1-12.9,0-19.4c0-1.8,0.4-2.8,2.5-2.6c3,0.1,6,0.1,9,0c3-0.1,5.6,0.6,7.3,3.3
		C320,142.1,319.4,145,317.2,148.3L317.2,148.3z"/>
	<path class="st15" d="M364.2,153.1c1.5,2.3,3.2,4.7,4.9,7.2c-3.6,1-6.3,0.1-8.1-2.6c-0.7-1.1-1.5-2.2-2.2-3.3
		c-0.9-1.3-2.2-1.4-3.5-1.1c-1.6,0.3-1.2,1.7-1.2,2.8c-0.1,0.8,0,1.7,0,2.5c0,0.9,0.3,2.1-1,2.4c-1.3,0.2-2.7,0.4-3.9-0.2
		c-0.6-0.3-0.7-1.1-0.7-1.7c0-6.6,0-13.3,0-19.9c0-1.7,0.7-2.4,2.3-2.4c3.3,0.1,6.6-0.1,10,0.1c4.3,0.2,7,2,8,5.4
		c1,3.7,0.1,6.9-3,9.2C365.1,151.9,364.3,152,364.2,153.1L364.2,153.1z"/>
	<path class="st14" d="M325,148.8c0-3.2,0.1-6.3,0-9.5c-0.1-2,0.7-2.6,2.6-2.5c4.6,0.1,9.3,0.1,14,0c1.8,0,2.3,0.8,2.3,2.4
		c0,1.6-0.6,2.5-2.3,2.5c-2.8,0-5.6,0.1-8.5,0c-1.7,0-2.4,0.6-2.4,2.3c0,1.8,0.8,2.4,2.4,2.3c1.8-0.1,3.7,0,5.5,0
		c1.8,0,3.7-0.4,3.6,2.6c-0.1,3.2-2.2,2.1-3.8,2.3c-1.6,0.1-3.3,0.1-5,0c-1.9-0.1-2.7,0.6-2.7,2.5c0,2,0.8,2.6,2.7,2.5
		c2.8-0.1,5.6,0,8.5,0c1.9-0.1,2.2,0.9,2.2,2.5c0,1.6-0.3,2.5-2.2,2.4c-4.8-0.1-9.6-0.1-14.5,0c-1.8,0-2.3-0.6-2.3-2.3
		C325.1,155.4,325,152.1,325,148.8L325,148.8z"/>
	<path class="st16" d="M87.9,85c0.3-2.8-1.2-6.3,0.7-8.2c1.8-1.9,5.3-0.5,8.1-0.6c2.5-0.1,5,0,7.4,0c1.2,0,1.8,0.6,1.8,1.8
		c0,3.5,0.2,7-0.1,10.4c-0.2,3.3-2.6,5.3-5.9,5.6c-1,0.1-2,0.1-3,0c-2.8-0.2-6.3,1.2-8.2-0.5C86.6,91.5,88.3,87.8,87.9,85z"/>
	<path class="st14" d="M236.7,149.2c0,3.2-0.1,6.3,0,9.5c0.1,2.2-1.1,2.4-2.8,2.4c-1.6,0-3.1,0.1-2.9-2.2c0.1-0.8,0.1-1.7,0-2.5
		c-0.2-1.6,0.9-4-0.7-4.6c-2.5-1.1-5.5-0.6-8.3-0.2c-0.7,0.1-0.9,0.9-0.9,1.6c0,1.7,0,3.3,0,5c-0.1,3-0.3,3-3.1,3
		c-1.8,0-2.3-0.7-2.3-2.4c0.1-6.5,0.1-13,0-19.5c0-2,0.8-2.6,2.7-2.5c1.7,0,3,0.3,2.7,2.4c0,0.2,0,0.3,0,0.5c0.2,2.1-1,5.1,0.8,6.1
		c2,1,4.9,0.3,7.4,0.4c1.2,0,1.8-0.5,1.8-1.8c0-1.7,0.1-3.3,0-5c-0.1-1.9,0.4-2.8,2.5-2.7c1.7,0.1,3.5-0.1,3.2,2.5
		c0,0.2,0,0.3,0,0.5C236.7,142.9,236.7,146.1,236.7,149.2L236.7,149.2z"/>
	<path class="st15" d="M68.5,76c2.6,0.1,6-0.7,7.7,0.6c2.1,1.7,0.6,5.2,0.8,8c0.1,2.3,0,4.6,0,6.9c0.1,1.6-0.4,2.5-2.2,2.4
		c-3-0.1-6,0.1-8.9-0.1c-3.8-0.1-6.2-2.3-6.6-6.1c-0.3-3.3-0.1-6.6-0.1-9.9c0-1.2,0.6-1.8,1.8-1.8c2.5,0,5,0,7.5,0
		C68.5,76.1,68.5,76,68.5,76L68.5,76z"/>
	<path class="st0" d="M96.5,65.2c-2.4-0.4-6.1,1.3-8.1-0.8c-1.7-1.8-0.5-5.4-0.5-8.2c0-2.6-1.2-6,0.5-7.7c1.8-1.9,5.3-0.6,8.1-0.7
		c2.3-0.1,4.7,0,7,0c1.6,0,2.4,0.4,2.4,2.2c-0.1,4.3-0.1,8.6,0,13c0,1.8-0.8,2.3-2.4,2.2C101.3,65.2,99.2,65.3,96.5,65.2L96.5,65.2z
		"/>
	<path class="st16" d="M68.2,47.9c2.3,0,4.7,0,7,0c1.3,0,1.8,0.6,1.8,1.8c0,4.5,0,9,0,13.5c0,1.4-0.4,2.1-2,2.1c-4.5-0.1-9,0-13.5,0
		c-1.7,0-2.4-0.6-2.4-2.3c0.1-4.3,0-8.6,0-13c0-1.5,0.6-2.1,2.1-2.1C63.6,47.9,65.9,47.9,68.2,47.9L68.2,47.9z"/>
	<path class="st15" d="M265.9,160.7c-4.8,0.6-4.9,0.6-6.9-3.2c-0.7-1.2-1.5-1.6-2.7-1.6c-1.5,0-3,0.1-4.5,0
		c-2.6-0.3-4.5,0.3-5.2,3.2c-0.9,3.4-3.6,1.8-6.1,2.2c0.8-3.7,2.6-6.7,3.8-9.8c1.7-4.1,3.6-8.2,5.2-12.3c0.7-1.9,1.9-2.4,3.8-2.4
		c1.7,0,2.8,0.6,3.5,2.2C259.8,146.1,262.8,153.3,265.9,160.7L265.9,160.7z"/>
	<path class="st15" d="M208.1,143.7c-1.1-0.6-2.3-1.3-3.5-1.8c-3.3-1.3-6.4-0.4-8.4,2.3c-1.8,2.5-1.8,6.9,0,9.4
		c2,2.7,5.1,3.6,8.4,2.3c0.9-0.4,1.8-0.9,2.6-1.4c0.9-0.6,1.5-0.3,2.2,0.3c2.3,1.8,2.3,2.8-0.1,4.6c-4.6,3.2-11.6,3-15.8-0.6
		c-4.3-3.6-5.7-9.8-3.4-15c2.3-5.2,8.2-8.4,14-7.4c1,0.2,1.9,0.4,2.9,0.8C211.6,138.7,211.8,139.8,208.1,143.7L208.1,143.7z"/>
	<path class="st15" d="M394.1,137.3c-1.7,2.8-3.2,5.5-5.1,8c-2.9,3.9-4.6,7.9-4,12.9c0.3,2.5-2.4,3.9-4.5,2.7
		c-0.9-0.5-0.9-1.4-0.7-2.2c1-5.8-1.7-10.2-4.8-14.6c-1.5-2.1-2.8-4.4-4.3-6.8c3.9-0.6,6.7,0.5,8.3,3.3c0.9,1.4,1.7,2.9,2.5,4.3
		c0.2,0.3,0.5,0.4,0.9,0.8c1.6-1.4,2.3-3.4,3.4-5.1C388.5,136.5,388.4,136.5,394.1,137.3L394.1,137.3z"/>
	<path class="st17" d="M255.2,183.2c0-2,0.1-4,0-6c-0.1-1.7,0.7-2.4,2.3-2.3c3.1,0.1,6.3,0,9.5,0c0.8,0,1.7,0.1,1.7,1.3
		c0.1,1.4-0.8,1.6-1.9,1.7c-1.8,0-3.6,0-5.5,0c-1.4,0-2.6,0-2.6,2c0,1.8,0.8,2.3,2.4,2.2c1.5-0.1,3,0,4.5,0c1.2,0,1.9,0.6,1.9,1.8
		c0,1.1-1,1.2-1.8,1.2c-1.5,0.1-3,0.1-4.5,0c-2.1-0.2-2.5,0.8-2.5,2.6c0,1.8,0.8,2.3,2.4,2.2c2-0.1,4,0,6,0c0.9,0,1.7,0.2,1.7,1.3
		c0,1-0.5,1.6-1.5,1.6c-3.3,0-6.6,0-10,0c-1.8,0-2.2-1.1-2.2-2.6C255.2,187.9,255.2,185.5,255.2,183.2L255.2,183.2L255.2,183.2z"/>
	<path class="st17" d="M330.3,183c0.3-2.3-1.3-5.9,0.8-7.6c1.7-1.3,5.1-0.4,7.8-0.5c1.2,0,2.3,0,3.5,0c0.9,0,1.6,0.4,1.5,1.5
		c-0.1,1-0.8,1.4-1.7,1.4c-2,0-4,0.1-6,0c-1.7-0.1-2.4,0.5-2.3,2.3c0,1.6,0.7,2,2.1,2c1.5-0.1,3,0,4.5,0c1.1,0,2.1,0.2,2.2,1.5
		c0.1,1.5-1,1.4-2,1.5c-1.3,0.1-2.7,0.1-4,0c-1.7-0.1-2.9,0.1-2.8,2.3c0,2,0.7,2.7,2.6,2.5c1.8-0.1,3.6,0,5.5,0c1,0,2.1,0.1,2,1.5
		c-0.1,1.4-1.1,1.4-2.1,1.4c-3,0-6,0-9,0c-1.6,0-2.5-0.7-2.5-2.3C330.3,188.1,330.3,185.8,330.3,183L330.3,183z"/>
	<path class="st6" d="M282.9,186.1c1.6,2.4,2.8,4.1,4.1,6c-2,1.2-3.3,0.6-4.4-0.9c-0.8-1.1-1.6-2.1-2.3-3.2
		c-0.9-1.4-2.2-1.4-3.5-1.2c-1.6,0.2-1.4,1.6-1.4,2.7c0,0.5,0,1,0,1.5c-0.1,1.1-0.5,1.9-1.8,1.8c-1.1-0.1-1.4-0.8-1.4-1.7
		c0-4.7,0-9.3,0-14c0-1.5,0.5-2.1,2-2.1c2.2,0.1,4.3,0,6.5,0c2.7,0,4.9,1.1,5.9,3.8c1,2.7,0,4.9-2.2,6.5
		C283.8,185.5,283.4,185.8,282.9,186.1L282.9,186.1z"/>
	<path class="st10" d="M404.8,183.7c0.1-5.4,3.7-8.9,9.2-8.9c5.7,0,9.3,3.8,9.2,9.4c-0.1,5.1-4.2,8.9-9.4,8.8
		C408.5,192.9,404.7,189,404.8,183.7L404.8,183.7z"/>
	<path class="st4" d="M212,181.3c0,3.1,0,6,0,9c0,1.1,0.2,2.5-1.6,2.4c-1.8-0.1-1.4-1.5-1.5-2.6c0-4.3,0-8.6,0-13
		c0-0.8-0.2-1.8,0.8-2.1c1-0.3,2-0.2,2.7,0.7c1.4,1.8,2.8,3.7,4.3,5.5c1.2,1.5,2.1,3.4,4.4,4.7c0-3,0-5.5,0-8.1
		c0-1.2-0.5-2.9,1.7-2.8c1.8,0.1,1.4,1.5,1.4,2.6c0,4.1,0,8.3,0,12.5c0,1,0.2,2.1-0.9,2.6c-1.1,0.4-1.9-0.3-2.6-1.1
		c-1.9-2.5-3.9-5-5.9-7.4C214.1,183.1,213.6,181.7,212,181.3L212,181.3z"/>
	<path class="st5" d="M296.1,174.8c1.4,0.1,2.9,0,4.2,0.8c0.8,0.5,2,0.7,1.5,2.1c-0.4,1-1.2,1.6-2.4,0.8c-1-0.7-2.2-0.8-3.3-0.8
		c-1.2,0-2.5,0.1-2.9,1.5c-0.5,1.5,0.9,2,1.9,2.5c1.2,0.5,2.5,0.7,3.8,1.2c3.2,1.2,4.4,2.8,4.1,5.4c-0.3,2.4-2.3,4.2-5.2,4.6
		c-2.4,0.4-4.6-0.2-6.7-1.4c-0.9-0.5-1.8-1.1-1.1-2.3c0.6-1.2,1.5-1.1,2.4-0.4c1.4,0.9,3,1.4,4.7,1.2c1.3-0.1,2.4-0.6,2.5-1.9
		c0.1-1.1-0.7-1.8-1.7-2.1c-1.1-0.3-2.2-0.6-3.3-1c-3.7-1.2-5.1-3.1-4.6-6C290.4,176.4,292.6,174.9,296.1,174.8L296.1,174.8z"/>
	<path class="st10" d="M369.1,192.2c2.3-5.3,4.5-10.6,7-15.8c1-2.2,3.2-2.2,4.3,0.1c2.1,4.5,4,9.1,6.1,13.6c0.4,0.9,1.1,1.9-0.3,2.5
		c-1,0.4-2,0.1-2.4-1.1c-0.8-2.6-2.4-3.6-5.2-3.4c-2.5,0.2-4.9-0.1-5.8,3.2C372.3,192.8,370.9,193.2,369.1,192.2L369.1,192.2z"/>
	<path class="st5" d="M360.8,174.8c1.3,0.1,2.8,0.1,4.2,0.9c0.9,0.6,1.7,1.1,1.1,2.3c-0.5,0.9-1.2,1.1-2.1,0.6
		c-1.4-0.8-2.8-1-4.3-0.8c-0.9,0.1-1.6,0.4-1.9,1.3c-0.4,1.2,0.4,1.9,1.3,2.4c1.4,0.6,2.8,0.9,4.2,1.4c3.3,1.2,4.3,2.5,4,5.4
		c-0.2,2.7-2.2,4.4-5.5,4.7c-2.4,0.2-4.6-0.5-6.6-1.7c-0.7-0.4-1.5-0.9-0.9-1.9c0.6-0.9,1.2-1.5,2.4-0.7c1.4,0.9,2.9,1.5,4.7,1.4
		c1.3-0.1,2.4-0.4,2.6-1.8c0.3-1.4-0.7-2.1-2-2.4c-1-0.3-1.9-0.6-2.9-0.9c-3.8-1.2-5.4-3.2-4.9-5.8
		C354.7,176.4,357.1,174.8,360.8,174.8L360.8,174.8z"/>
	<path class="st6" d="M189.7,181.3c0-1.5,0-3,0-4.5c0-0.9,0.1-1.7,1.2-1.8c1.2-0.1,1.9,0.4,1.9,1.6c0,1.8,0,3.7,0,5.5
		c0,0.8,0,1.7,0,2.5c0.2,3.6,1.7,5.4,4.5,5.3c2.8-0.1,4.2-1.9,4.4-5.6c0.1-2.5,0-5,0-7.5c0-1.1,0.2-1.9,1.6-1.9
		c1.4,0,1.6,0.8,1.6,1.9c0,3.2,0.2,6.3-0.1,9.5c-0.5,4.3-3.5,6.7-7.9,6.6c-4.4-0.1-6.9-2.6-7.1-7.2
		C189.6,184.3,189.7,182.8,189.7,181.3L189.7,181.3z"/>
	<path class="st3" d="M235.2,175.4c2.1-0.8,3.4-0.7,4.1,1.5c1.2,3.4,2.7,6.7,4.1,10.4c2-1.5,2.1-3.7,2.9-5.5
		c0.9-1.8,1.5-3.6,2.3-5.5c0.7-1.7,1.9-1.4,3.6-0.7c-2.2,5.3-4.2,10.7-6.6,15.9c-0.9,2.1-3,2.1-4-0.1
		C239.5,186.1,237.4,180.8,235.2,175.4L235.2,175.4z"/>
	<path class="st5" d="M386.4,175.4c2.6-0.9,3.7-0.1,4.3,1.8c1.2,3.2,2.5,6.4,3.8,9.6c1.9,0.2,1.7-1.5,2.1-2.3c1.2-2.6,2-5.2,3.1-7.8
		c0.6-1.4,0.7-1.4,4-1.4c-2.2,5.4-4.4,10.7-6.6,15.9c-0.4,1-1,1.7-2.2,1.7c-1.2,0-1.7-0.8-2.1-1.8
		C390.7,185.8,388.5,180.7,386.4,175.4L386.4,175.4z"/>
	<path class="st6" d="M320.2,175c2,0,4-0.1,6,0c0.7,0,1.1,0.6,1.1,1.3c0,0.7-0.2,1.3-1,1.5c-1.4,0.4-3.5-0.7-4.1,0.8
		c-0.6,1.6-0.3,3.6-0.3,5.4c0,2.3,0,4.6,0,6.9c0,0.9-0.2,1.6-1.3,1.7c-1.3,0.1-1.9-0.6-1.9-1.7c0-3.3-0.1-6.6,0-9.9
		c0.1-2.3-0.5-3.5-3-3.1c-0.5,0.1-1,0-1.5,0c-1.1-0.1-1.2-0.8-1.2-1.7c0-0.8,0.5-1.2,1.2-1.2C316.3,175,318.2,175,320.2,175
		C320.2,175,320.2,175,320.2,175L320.2,175z"/>
	<path class="st10" d="M430.1,183.9c0,2.5,0,4.9,0,7.4c0,0.9-0.5,1.5-1.5,1.5c-1,0-1.5-0.6-1.5-1.5c0-4.9,0-9.9,0-14.8
		c0-1,0.6-1.4,1.5-1.4c1,0,1.5,0.5,1.5,1.5C430.1,179,430.1,181.4,430.1,183.9L430.1,183.9z"/>
	<path class="st18" d="M228.9,184c0-2.3,0-4.6,0-6.9c0-1,0-2,1.4-2.1c1.3-0.1,1.7,0.6,1.7,1.8c0,4.6,0,9.2,0,13.8c0,1,0,2-1.4,2.1
		c-1.8,0.1-1.7-1.2-1.7-2.4C228.9,188.3,228.9,186.1,228.9,184L228.9,184z"/>
	<path class="st0" d="M306.7,183.9c0-2.5,0-5,0-7.4c0-1,0.6-1.5,1.5-1.5s1.5,0.4,1.5,1.5c0,4.8,0,9.6,0,14.4c0,1.2-0.6,1.9-1.9,1.8
		c-1.1-0.1-1.2-1-1.2-1.8C306.7,188.6,306.7,186.3,306.7,183.9C306.7,183.9,306.7,183.9,306.7,183.9L306.7,183.9z"/>
	<path class="st19" d="M333,134.6c3.5-6.5,3.6-5.7,7.8-3C338.4,133.3,336.5,135.9,333,134.6z"/>
	<path class="st20" d="M336.6,173.9c-0.2-0.4-0.3-0.5-0.3-0.6c0.8-1.5,1.1-3.6,3.5-3.1c0.4,0.1,1,0.8,0.9,0.9
		C340,173,338.7,174.1,336.6,173.9L336.6,173.9z"/>
	<path class="st0" d="M165.1,84.9c0-16.3,0-32.7,0-49c0-5.7-1.1-6.9-6.6-6.9c-9.2,0-18.3,0.2-27.5-0.1c-3.9-0.1-6.6,1.8-6.6,5.1
		c0,2.9,2.2,4.4,6.6,4.4c7,0,14,0,21,0c3.8,0,3.8,0.1,3.8,3.9c0,35.2,0,70.3-0.1,105.5c0,4-0.7,8.1-1.1,12.6c-2.2-1.3-2.9-2.8-3.9-4
		c-7.5-9.8-15.2-19.4-22.5-29.3c-4.5-6.1-7.8-6.5-12.1,0c-1.9,2.8-4.2,5.5-6.4,8.4c-4.6-6.2-8.9-11.9-13.2-17.6c-3-4-6-8-9-12
		c-3.5-4.5-6.4-4.4-9.9,0.1c-0.6,0.8-1.2,1.6-1.8,2.4c-6.7,8.9-13.4,17.8-20.4,27.1c-0.5-0.8-0.9-1.3-1.3-1.9
		c-2.3-3.1-4.5-6.2-7-9.2c-2.6-3.1-5.3-3-8-0.1c-0.8,0.8-1.4,1.8-2.2,2.8c-7.7,10-15.4,20.1-23.2,30.1c-0.7,1-1.4,2.1-2.5,2.7
		c-1.2-1.1-1.1-2.3-1.2-3.4c-0.2-4.8-0.6-9.7-0.6-14.5c-0.1-32.7,0-65.3,0-98c0-0.8,0.1-1.7,0-2.5c-0.2-2.4,0.7-3.3,3.1-3.2
		c4.3,0.1,8.7,0,13,0c3.5,0,7,0.1,10.5-0.1c2.9-0.1,4.9-2.2,4.8-4.7c0-2.5-2-4.3-5-4.6c-0.5,0-1,0-1.5,0c-9.3,0-18.7,0.1-28,0
		c-2.8,0-4.8,0.8-6.4,3.1h0v123c1,1.3,0.3,2.8,0.5,4.2c-0.2,6.5,1.5,12.5,3.9,18.4c9.1,21.9,23.7,38.3,46.6,46.4h4
		c2.3-1.1,4-2.9,5.5-4.9c6-8.1,12.1-16.2,18.2-24.3c2.6-3.5,5.2-3.5,7.7-0.2c6.3,8.4,12.6,16.7,18.8,25.1c1.5,2.1,3.3,3.6,5.8,4.4h3
		c0.4-1.4,1.8-1.3,2.7-1.8c31.4-15.5,47.9-40.7,48.3-75.8C165.3,125.9,165.1,105.4,165.1,84.9z M138.6,194.1
		c-5,5.8-10.8,10.8-17.3,14.9c-2.4,1.5-4.9,4-7.5,3.5c-2.3-0.5-3.4-3.8-5-5.9c-6.9-9.2-13.8-18.3-20.7-27.5
		c-0.6-0.8-1.1-1.7-1.8-2.4c-2.4-2.5-5.1-2.6-7.3,0c-1.8,2-3.3,4.2-4.9,6.3c-6.8,9-13.6,18.1-20.4,27.1c-2.3,3.1-2.3,3-5.9,1.2
		c-7.7-4.1-14.4-9.6-20.2-16.1c-2.8-3.2-2.8-3.2-0.3-6.5c12.4-16.5,24.8-33,37.2-49.4c5.9-7.8,11.8-15.7,18.1-24.1c0,0,0,0,0,0h0
		c0,0,0,0,0,0c2.6,3.4,4.8,6.3,7,9.2c15.8,21,31.5,42,47.3,63c0.6,0.8,1.1,1.7,1.8,2.4C140.2,191.4,140,192.6,138.6,194.1z"/>
	<path class="st9" d="M56.9,22.8c4.5,1.4,8.3,1.5,12.1,1.2c4.4-0.4,8.3-2,11.8-4.8c0.8-0.7,1.6-1.8,2.9-0.6c7,6.3,15.2,6.3,23.8,4.7
		c0.7,1,0.1,2,0,2.9c-0.2,2.3-1.2,2.9-3.6,2.9c-14.3-0.1-28.6-0.1-42.9,0c-2.5,0-3.3-0.8-3.3-3C57.7,25.2,57.3,24.5,56.9,22.8
		L56.9,22.8z"/>
	<path class="st21" d="M283.1,221c-1.7-0.3-3.9,0.9-3.9-2.3c0-1.8,0.4-2.9,2.4-2.7c1.5,0.1,3,0,4.4,0.3c0.9,0.2,1.8,0.8,1.9,2
		c0.1,1.4-0.9,2.1-2,2.4C285,221.1,283.9,221,283.1,221L283.1,221z"/>
	<path class="st9" d="M283.2,213.3c-3.4,0-4.2-0.6-3.9-2.8c0.1-1,0.7-1.5,1.6-1.5c1.3,0,2.7-0.1,4,0.1c1.1,0.1,1.9,0.8,2,1.9
		c0.1,1.1-0.7,1.9-1.7,2.1C284.3,213.3,283.5,213.2,283.2,213.3L283.2,213.3z"/>
	<path class="st9" d="M219.8,221c-3.3,0-5.8-2.6-5.8-6.1c0-3.5,2.4-6,5.8-6.1c3.6-0.1,6.3,2.7,6.1,6.3
		C225.8,218.4,223.1,221,219.8,221L219.8,221z"/>
	<path class="st22" d="M317.5,210.2c1.3,2.1,2.2,3.8,2.6,6.1c-1.7,0.9-3.3,0.7-5.1,0.1C315.4,214.1,316.4,212.3,317.5,210.2
		L317.5,210.2z"/>
	<path class="st23" d="M309.4,151.1c1.1,0,2.3-0.1,3.4,0c1.4,0.2,2.4,1,2.4,2.6c0,1.7-1.1,2.3-2.5,2.4c-1.8,0.1-3.6,0-5.4,0.1
		c-1.4,0-2.1-0.5-2.1-2c0-2.9,0-3.4,2.8-3.3c0.5,0,1,0,1.5,0C309.4,151.1,309.4,151.1,309.4,151.1L309.4,151.1z"/>
	<path class="st11" d="M309.6,146.6c-4.1,0.1-4.9-0.7-4.5-3.5c0.2-1.2,0.9-1.8,1.9-1.7c1.6,0,3.3,0.2,4.9,0.4c1.3,0.2,2,0.9,2,2.3
		c0,1.2-0.7,1.8-1.8,2C311.1,146.4,310,146.6,309.6,146.6L309.6,146.6z"/>
	<path class="st24" d="M357.4,141.7c1.2,0.1,2.2,0.1,3.2,0.2c1.5,0.1,2.4,1.1,2.6,2.5c0.2,1.6-0.2,3.1-1.8,3.6
		c-1.1,0.4-2.2,0.6-3.4,0.6c-3.6,0.2-5.5-2.7-3.9-6C354.8,141.1,356.4,142.1,357.4,141.7L357.4,141.7z"/>
	<path class="st25" d="M256.2,150.7c-2.4,0.4-4.2,0.5-6.1,0c0.8-2.3,1.5-4.5,3.1-7.1C254.3,146.2,255.2,148.2,256.2,150.7
		L256.2,150.7z"/>
	<path class="st21" d="M275.2,180.4c0.1-2.5,0.3-2.7,4-2.6c2.8,0.1,4.3,1.1,4.3,2.9c-0.1,2-2.1,3.1-5.4,3
		C275.5,183.7,275.1,183.3,275.2,180.4L275.2,180.4z"/>
	<path class="st26" d="M413.9,177.7c3.3,0,6,2.5,6,5.9c0.1,3.5-2.8,6.5-6.2,6.4c-3.2-0.1-5.8-2.9-5.8-6.2
		C408,180.3,410.6,177.8,413.9,177.7L413.9,177.7z"/>
	<path class="st27" d="M378.5,179.4c0.8,1.9,1.6,3.8,2.5,6c-2,0.3-4.2,1.3-5.1-0.5C375,182.9,377.3,181.3,378.5,179.4z"/>
</g>
</svg>
