<svg width="184" height="91" viewBox="0 0 184 91" fill="none" xmlns="http://www.w3.org/2000/svg">
<g clip-path="url(#clip0_19_8)" filter="url(#filter0_d_19_8)">
<path d="M12.455 8.82083C15.9473 2.94196 21.2645 0 28.3967 0C31.889 0 35.1256 0.926698 38.0955 2.78515C41.0654 4.64361 43.3926 7.25071 45.07 10.6054C47.4487 6.19249 51.1512 3.04617 56.1855 1.15635C58.2156 0.387473 60.5054 0 63.0569 0C65.6085 0 68.0559 0.507863 70.3983 1.52359C72.7406 2.53932 74.8212 3.98905 76.6411 5.87887C80.5579 10.0773 82.5132 15.328 82.5132 21.6297V53.3418H74.6444V21.8391C74.6444 17.5 73.4207 13.9298 70.9743 11.1285C68.5268 8.46877 65.4165 7.13942 61.6412 7.13942C57.6568 7.13942 54.3312 8.43741 51.6756 11.0233C48.8786 13.683 47.4821 17.326 47.4821 21.9433V53.3408H39.6133V21.8391C39.6133 17.5 38.3895 13.9298 35.9431 11.1285C33.4957 8.46877 30.3853 7.13942 26.6101 7.13942C22.6257 7.13942 19.3001 8.43741 16.6445 11.0233C13.8474 13.683 12.4509 17.326 12.4509 21.9433V53.3408H4.58618V0.842729H12.455V8.82589V8.82083Z" fill="black"/>
<path d="M94.0572 8.82083C97.5505 2.94196 102.868 0 110 0C113.498 0 116.729 0.926698 119.704 2.78515C122.674 4.64361 125.001 7.25071 126.678 10.6054C129.057 6.19249 132.759 3.04617 137.794 1.15635C139.824 0.387473 142.114 0 144.665 0C147.217 0 149.664 0.507863 152.007 1.52359C154.349 2.53932 156.43 3.98905 158.249 5.87887C162.166 10.0773 164.121 15.328 164.121 21.6297V53.3418H156.253V21.8391C156.253 17.5 155.029 13.9298 152.583 11.1285C150.135 8.46877 147.025 7.13942 143.25 7.13942C139.265 7.13942 135.94 8.43741 133.284 11.0233C130.487 13.683 129.09 17.326 129.09 21.9433V53.3408H121.222V21.8391C121.222 17.5 119.998 13.9298 117.551 11.1285C115.104 8.46877 111.994 7.13942 108.218 7.13942C104.234 7.13942 100.908 8.43741 98.2528 11.0233C95.4557 13.683 94.0592 17.326 94.0592 21.9433V53.3408H86.1904V0.842729H94.0592V8.82589V8.82083H94.0572Z" fill="black"/>
<path d="M167.792 0.842728H175.66V53.3469H167.792V0.842728Z" fill="black"/>
<path d="M8.72716 81.5039H8.75343L10.6623 76.6408H11.6718V82.6289H10.8613V78.1431H10.8351L9.02627 82.6289H8.4614L6.595 77.9914H6.56872V82.6289H5.7583V76.6408H6.81933L8.72211 81.5039H8.72716Z" fill="black"/>
<path d="M16.3029 79.8498H13.8453V81.9905H16.7212V82.6238H13.0349V76.6357H16.6737V77.2741H13.8453V79.2104H16.3029V79.8488V79.8498ZM15.2732 74.9654H16.22L16.2301 74.9917L15.1267 76.0601H14.5204L15.2782 74.9664H15.2732V74.9654Z" fill="black"/>
<path d="M21.8294 77.2802H19.8579V82.6299H19.0475V77.2802H17.1023V76.6418H21.8294V77.2802Z" fill="black"/>
<path d="M23.5391 82.6299H22.7236V76.6418H23.5391V82.6299Z" fill="black"/>
<path d="M28.2553 79.8498H25.7977V81.9905H28.6736V82.6238H24.9873V76.6357H28.6261V77.2741H25.7977V79.2104H28.2553V79.8488V79.8498Z" fill="black"/>
<path d="M30.4044 80.0329V82.6289H29.594V76.6458H31.6382C32.292 76.6458 32.7943 76.7925 33.1388 77.0798C33.4844 77.3732 33.6562 77.7921 33.6562 78.3465C33.6562 78.655 33.5774 78.9221 33.4157 79.1477C33.254 79.3723 33.0236 79.5564 32.7154 79.692C33.0449 79.7962 33.2803 79.9743 33.4268 80.21C33.5683 80.4508 33.6411 80.7492 33.6411 81.1003V81.6658C33.6411 81.854 33.6623 82.0219 33.7037 82.1686C33.7451 82.3153 33.8139 82.4357 33.9179 82.5298V82.6289H33.0863C32.9822 82.5348 32.9084 82.3982 32.8822 82.2151C32.8559 82.032 32.8347 81.8489 32.8347 81.6547V81.1053C32.8347 80.7806 32.7407 80.5185 32.5527 80.3253C32.3648 80.1321 32.1081 80.0269 31.7949 80.0269H30.4095L30.4044 80.0319V80.0329ZM30.4044 79.3946H31.5604C32.0152 79.3946 32.3446 79.3055 32.5487 79.1325C32.7528 78.9595 32.8519 78.6925 32.8519 78.3374C32.8519 78.0025 32.7528 77.7405 32.5588 77.5523C32.3658 77.3692 32.0566 77.2751 31.6443 77.2751H30.4105V79.3956H30.4054L30.4044 79.3946Z" fill="black"/>
<path d="M38.1016 81.1164C38.1016 80.8443 38.0025 80.6187 37.8085 80.4356C37.6155 80.2525 37.2699 80.0957 36.7839 79.9641C36.1776 79.8124 35.7016 79.5929 35.3621 79.2995C35.0226 79.0061 34.8498 78.6399 34.8498 78.1947C34.8498 77.7233 35.0327 77.3358 35.3985 77.0222C35.7643 76.7086 36.2402 76.5507 36.8263 76.5507C37.4538 76.5507 37.9561 76.7288 38.332 77.09C38.7028 77.4461 38.8857 77.8649 38.8756 78.3414L38.8655 78.3677H38.0915C38.0915 78.0278 37.9712 77.7445 37.7358 77.525C37.5003 77.3054 37.1972 77.1901 36.8263 77.1901C36.4555 77.1901 36.1574 77.2842 35.9583 77.4673C35.7592 77.6504 35.6551 77.8912 35.6551 78.1846C35.6551 78.4466 35.7653 78.6611 35.9846 78.8392C36.2038 79.0122 36.5646 79.1639 37.0567 79.2995C37.658 79.4563 38.1177 79.6869 38.432 79.9904C38.7463 80.2939 38.9029 80.6713 38.9029 81.1154C38.9029 81.597 38.715 81.9845 38.333 82.2779C37.951 82.5712 37.4599 82.7179 36.8486 82.7179C36.2372 82.7179 35.7613 82.5561 35.3166 82.2313C34.872 81.9066 34.6578 81.4726 34.6739 80.9333L34.6841 80.907H35.4581C35.4581 81.2844 35.5996 81.5717 35.8866 81.7761C36.1735 81.9804 36.4929 82.0796 36.8536 82.0796C37.2356 82.0796 37.5387 81.9956 37.7631 81.8226C37.9874 81.6496 38.0975 81.4139 38.0975 81.1215L38.1026 81.1164H38.1016Z" fill="black"/>
<path d="M42.0798 82.6299V76.6418H43.9624C44.7415 76.6418 45.369 76.8826 45.845 77.3641C46.3209 77.8457 46.5564 78.4689 46.5564 79.2276V80.0441C46.5564 80.8079 46.3209 81.4311 45.845 81.9076C45.369 82.3841 44.7415 82.6249 43.9624 82.6249H42.0798V82.6299ZM42.8903 77.2802V81.9966H43.9624C44.5162 81.9966 44.9507 81.8135 45.27 81.4523C45.5893 81.0861 45.751 80.6197 45.751 80.0491V79.2216C45.751 78.656 45.5944 78.1907 45.27 77.8295C44.9507 77.4633 44.5172 77.2802 43.9624 77.2802H42.8903Z" fill="black"/>
<path d="M52.1557 76.6408V80.6187C52.1557 81.2783 51.9415 81.7912 51.513 82.1625C51.0846 82.5338 50.5349 82.7169 49.8608 82.7169C49.1868 82.7169 48.6796 82.5338 48.2663 82.1625C47.853 81.7912 47.6438 81.2783 47.6438 80.6238V76.6458H48.4542V80.6238C48.4542 81.079 48.5846 81.4402 48.8463 81.6971C49.108 81.9541 49.4475 82.0846 49.8608 82.0846C50.3004 82.0846 50.6551 81.9541 50.933 81.6971C51.2099 81.4402 51.3463 81.079 51.3463 80.6238V76.6458H52.1567V76.6408H52.1557Z" fill="black"/>
<path d="M58.4298 81.5039H58.456L60.3649 76.6408H61.3683V82.6289H60.5579V78.1431H60.5316L58.7228 82.6289H58.1579L56.2915 77.9914H56.2653V82.6289H55.4548V76.6408H56.5159L58.4186 81.5039H58.4287H58.4298Z" fill="black"/>
<path d="M67.1464 76.6408V80.6187C67.1464 81.2783 66.9322 81.7912 66.5037 82.1625C66.0753 82.5338 65.5256 82.7169 64.8516 82.7169C64.1776 82.7169 63.6703 82.5338 63.257 82.1625C62.8437 81.7912 62.6345 81.2783 62.6345 80.6238V76.6458H63.4449V80.6238C63.4449 81.079 63.5753 81.4402 63.837 81.6971C64.0987 81.9541 64.4383 82.0846 64.8516 82.0846C65.2911 82.0846 65.6458 81.9541 65.9237 81.6971C66.2006 81.4402 66.337 81.079 66.337 80.6238V76.6458H67.1474V76.6408H67.1464Z" fill="black"/>
<path d="M69.2059 81.9966H72.1233V82.6299H68.3955V76.6418H69.2059V81.9966Z" fill="black"/>
<path d="M76.0399 77.2802H74.0684V82.6299H73.258V77.2802H71.3127V76.6418H76.0399V77.2802Z" fill="black"/>
<path d="M77.7496 82.6299H76.9341V76.6418H77.7496V82.6299Z" fill="black"/>
<path d="M82.1675 81.5039H82.1938L84.1027 76.6408H85.1061V82.6289H84.2957V78.1431H84.2694L82.4606 82.6289H81.8957L80.0293 77.9914H80.0031V82.6289H79.1926V76.6408H80.2537L82.1564 81.5039H82.1665H82.1675Z" fill="black"/>
<path d="M89.7382 79.8498H87.2806V81.9905H90.1565V82.6238H86.4702V76.6357H90.109V77.2741H87.2806V79.2104H89.7382V79.8488V79.8498ZM88.7085 74.9654H89.6553L89.6654 74.9917L88.562 76.0601H87.9557L88.7135 74.9664H88.7085V74.9654Z" fill="black"/>
<path d="M91.0823 82.6299V76.6418H92.9648C93.7439 76.6418 94.3715 76.8826 94.8474 77.3641C95.3234 77.8457 95.5588 78.4689 95.5588 79.2276V80.0441C95.5588 80.8079 95.3234 81.4311 94.8474 81.9076C94.3715 82.3841 93.7439 82.6249 92.9648 82.6249H91.0823V82.6299ZM91.8927 77.2802V81.9966H92.9648C93.5186 81.9966 93.9531 81.8135 94.2724 81.4523C94.5918 81.0861 94.7534 80.6197 94.7534 80.0491V79.2216C94.7534 78.656 94.5968 78.1907 94.2724 77.8295C93.9531 77.4633 93.5196 77.2802 92.9648 77.2802H91.8927Z" fill="black"/>
<path d="M97.6443 82.6299H96.8289V76.6418H97.6443V82.6299Z" fill="black"/>
<path d="M102.256 81.0851H100.003L99.4694 82.6289H98.6428L100.797 76.6408H101.492L103.604 82.6289H102.778L102.255 81.0851H102.256ZM100.238 80.4042H102.027L101.154 77.8335H101.128L100.238 80.4042Z" fill="black"/>
<path d="M109.775 79.8498H107.317V81.9905H110.193V82.6238H106.507V76.6357H110.145V77.2741H107.317V79.2104H109.775V79.8488V79.8498Z" fill="black"/>
<path d="M115.301 77.2802H113.329V82.6299H112.519V77.2802H110.574V76.6418H115.301V77.2802Z" fill="black"/>
<path d="M118.172 82.6299V76.6418H120.054C120.834 76.6418 121.461 76.8826 121.937 77.3641C122.413 77.8457 122.648 78.4689 122.648 79.2276V80.0441C122.648 80.8079 122.413 81.4311 121.937 81.9076C121.461 82.3841 120.834 82.6249 120.054 82.6249H118.172V82.6299ZM118.982 77.2802V81.9966H120.054C120.608 81.9966 121.043 81.8135 121.362 81.4523C121.681 81.0861 121.843 80.6197 121.843 80.0491V79.2216C121.843 78.656 121.686 78.1907 121.362 77.8295C121.043 77.4633 120.609 77.2802 120.054 77.2802H118.982Z" fill="black"/>
<path d="M127.103 79.8498H124.645V81.9905H127.521V82.6238H123.835V76.6357H127.474V77.2741H124.645V79.2104H127.103V79.8488V79.8498Z" fill="black"/>
<path d="M131.311 81.9966H134.229V82.6299H130.501V76.6418H131.311V81.9966Z" fill="black"/>
<path d="M135.301 77.4319L134.888 78.8553H134.49V76.6408H135.301V77.436V77.4309V77.4319Z" fill="black"/>
<path d="M137.508 82.6299H136.692V76.6418H137.508V82.6299Z" fill="black"/>
<path d="M143.479 82.6299H142.668L139.787 78.0551L139.761 78.0652V82.6299H138.951V76.6418H139.761L142.642 81.2115H142.668V76.6418H143.479V82.6299Z" fill="black"/>
<path d="M148.911 77.2802H146.94V82.6299H146.129V77.2802H144.184V76.6418H148.911V77.2802Z" fill="black"/>
<path d="M152.995 79.8498H150.537V81.9905H153.413V82.6238H149.727V76.6357H153.366V77.2741H150.537V79.2104H152.995V79.8488V79.8498Z" fill="black"/>
<path d="M155.143 80.0329V82.6289H154.333V76.6458H156.377C157.031 76.6458 157.533 76.7925 157.878 77.0798C158.223 77.3732 158.395 77.7921 158.395 78.3465C158.395 78.655 158.316 78.9221 158.154 79.1477C157.993 79.3733 157.762 79.5564 157.454 79.692C157.784 79.7962 158.019 79.9743 158.166 80.21C158.307 80.4508 158.38 80.7492 158.38 81.1003V81.6658C158.38 81.854 158.401 82.0219 158.442 82.1686C158.484 82.3153 158.553 82.4357 158.657 82.5298V82.6289H157.825C157.721 82.5348 157.647 82.3982 157.621 82.2151C157.595 82.032 157.573 81.8489 157.573 81.6547V81.1053C157.573 80.7806 157.479 80.5185 157.292 80.3253C157.104 80.1321 156.847 80.0269 156.534 80.0269H155.148L155.143 80.0319V80.0329ZM155.143 79.3946H156.299C156.754 79.3946 157.083 79.3055 157.287 79.1325C157.492 78.9595 157.591 78.6925 157.591 78.3374C157.591 78.0025 157.492 77.7405 157.298 77.5523C157.105 77.3692 156.795 77.2751 156.383 77.2751H155.149V79.3956H155.144L155.143 79.3946Z" fill="black"/>
<path d="M164.178 82.6299H163.368L160.487 78.0551L160.46 78.0652V82.6299H159.65V76.6418H160.46L163.341 81.2115H163.368V76.6418H164.178V82.6299Z" fill="black"/>
<path d="M168.811 79.8498H166.354V81.9905H169.23V82.6238H165.543V76.6357H169.182V77.2741H166.354V79.2104H168.811V79.8488V79.8498Z" fill="black"/>
<path d="M174.333 77.2802H172.361V82.6299H171.551V77.2802H169.605V76.6418H174.333V77.2802Z" fill="black"/>
<path d="M13.1602 69.0926L13.1764 69.1402C13.1976 70.1772 12.8308 71.0452 12.084 71.7422C11.3373 72.4393 10.348 72.7893 9.1192 72.7893C7.89043 72.7893 6.85567 72.3442 6.07051 71.46C5.28636 70.5758 4.89429 69.4548 4.89429 68.0941V66.1315C4.89429 64.7707 5.28636 63.6447 6.07051 62.7605C6.85466 61.8703 7.87426 61.4312 9.1192 61.4312C10.3641 61.4312 11.3575 61.7661 12.0941 62.4307C12.8318 63.0954 13.1925 63.9746 13.1713 65.0742L13.1552 65.1218H11.7223C11.7223 64.3469 11.4979 63.7348 11.0422 63.2846C10.5875 62.8344 9.94377 62.6098 9.11819 62.6098C8.29261 62.6098 7.62265 62.9447 7.12649 63.6205C6.62932 64.2953 6.38377 65.1279 6.38377 66.1223V68.1012C6.38377 69.1058 6.62932 69.9495 7.12649 70.6193C7.62366 71.289 8.28756 71.6299 9.11819 71.6299C9.94883 71.6299 10.5875 71.4053 11.0422 70.9602C11.4969 70.5151 11.7223 69.8919 11.7223 69.1068H13.1552L13.1602 69.0967V69.0926Z" fill="black"/>
<path d="M24.6325 72.6264H23.142V67.7481H17.7883V72.6264H16.2979V61.5809H17.7883V66.5695H23.142V61.5809H24.6325V72.6264Z" fill="black"/>
<path d="M34.2211 69.7836H30.07L29.0868 72.6264H27.5649L31.5443 61.5809H32.8256L36.7211 72.6264H35.1993L34.2322 69.7836H34.2221H34.2211ZM30.5035 68.5322H33.7977L32.193 63.7894H32.1456L30.5035 68.5322Z" fill="black"/>
<path d="M44.987 70.5586H45.0345L48.5581 61.586H50.4144V72.6315H48.9239V64.3549H48.8764L45.5357 72.6315H44.4949L41.0541 64.0777H41.0066V72.6315H39.5161V61.586H41.4765L44.985 70.5586H44.987Z" fill="black"/>
<path d="M54.1736 72.6264V61.5809H57.771C58.921 61.5809 59.8254 61.8318 60.4741 62.3296C61.1279 62.8273 61.4523 63.5749 61.4523 64.5704C61.4523 65.0469 61.3058 65.4708 61.0127 65.8482C60.7197 66.2255 60.3326 66.5129 59.8466 66.7071C60.5681 66.8062 61.138 67.1209 61.5614 67.649C61.9848 68.172 62.194 68.7952 62.194 69.5074C62.194 70.5181 61.8646 71.292 61.2108 71.8262C60.5519 72.3604 59.6627 72.6274 58.544 72.6274H54.1726L54.1736 72.6264ZM55.6641 66.2771H58.0802C58.634 66.2771 59.0897 66.1254 59.4343 65.8168C59.7849 65.5133 59.9567 65.0844 59.9567 64.5391C59.9567 63.9422 59.7688 63.497 59.3919 63.1986C59.0149 62.9001 58.4713 62.7535 57.766 62.7535H55.6591V66.2711L55.6641 66.2761V66.2771ZM55.6641 67.4446V71.4539H58.5451C59.2251 71.4539 59.7577 71.286 60.1346 70.9511C60.5115 70.6162 60.6994 70.1397 60.6994 69.5216C60.6994 68.9035 60.5064 68.4168 60.1245 68.0405C59.7425 67.6641 59.2251 67.4648 58.5713 67.4436H55.6641V67.4446Z" fill="black"/>
<path d="M71.2399 67.5063H66.7119V71.459H72.014V72.6264H65.2163V61.5809H71.9301V62.7585H66.7119V66.3287H71.2399V67.5063ZM69.3371 58.4973H71.0782L71.0944 58.5449L69.0552 60.5187H67.9366L69.3382 58.5034V58.4983L69.3371 58.4973Z" fill="black"/>
<path d="M76.448 67.8412V72.6254H74.9575V61.591H78.7328C79.9403 61.591 80.8609 61.8581 81.4985 62.3973C82.1361 62.9315 82.4555 63.7115 82.4555 64.7323C82.4555 65.2978 82.3089 65.7895 82.0108 66.2134C81.7178 66.6322 81.2843 66.9671 80.7194 67.2129C81.3257 67.4122 81.7602 67.7309 82.027 68.171C82.2938 68.6161 82.4241 69.1604 82.4241 69.815V70.857C82.4241 71.203 82.4605 71.5116 82.5393 71.7837C82.6121 72.0558 82.7485 72.2814 82.9314 72.4534V72.6365H81.3944C81.1954 72.4636 81.0701 72.2127 81.0175 71.8778C80.9599 71.5429 80.9336 71.203 80.9336 70.8469V69.8362C80.9336 69.2393 80.7608 68.7578 80.4112 68.3966C80.0616 68.0354 79.5957 67.8523 79.0096 67.8523H76.4581L76.448 67.8422V67.8412ZM76.448 66.6636H78.5761C79.4179 66.6636 80.0242 66.5017 80.3961 66.182C80.7669 65.8623 80.9498 65.3707 80.9498 64.7161C80.9498 64.0616 80.7669 63.6114 80.4062 63.2714C80.0454 62.9315 79.4805 62.7585 78.7227 62.7585H76.443V66.6636H76.448Z" fill="black"/>
<path d="M89.242 67.1978L92.1229 61.586H93.8276L89.9584 68.7466V72.6305H88.474V68.6313L84.6624 61.585H86.3671L89.248 67.1968H89.243L89.242 67.1978Z" fill="black"/>
<path d="M106.136 71.5895C109.072 71.5895 111.453 69.2061 111.453 66.266C111.453 63.3259 109.072 60.9426 106.136 60.9426C103.199 60.9426 100.818 63.3259 100.818 66.266C100.818 69.2061 103.199 71.5895 106.136 71.5895Z" fill="#69B42E"/>
<path d="M122.046 71.3274C124.983 71.3274 127.363 68.944 127.363 66.004C127.363 63.0639 124.983 60.6805 122.046 60.6805C119.109 60.6805 116.729 63.0639 116.729 66.004C116.729 68.944 119.109 71.3274 122.046 71.3274Z" fill="#2D93CF"/>
<path d="M143.21 66.8601C143.681 63.958 141.713 61.2235 138.814 60.7525C135.915 60.2814 133.184 62.2521 132.713 65.1542C132.243 68.0563 134.211 70.7908 137.11 71.2618C140.009 71.7329 142.74 69.7622 143.21 66.8601Z" fill="#3C54A1"/>
<path d="M153.868 71.3274C156.804 71.3274 159.185 68.944 159.185 66.004C159.185 63.0639 156.804 60.6805 153.868 60.6805C150.931 60.6805 148.551 63.0639 148.551 66.004C148.551 68.944 150.931 71.3274 153.868 71.3274Z" fill="#D90C30"/>
<path d="M169.778 71.3274C172.715 71.3274 175.095 68.944 175.095 66.004C175.095 63.0639 172.715 60.6805 169.778 60.6805C166.842 60.6805 164.461 63.0639 164.461 66.004C164.461 68.944 166.842 71.3274 169.778 71.3274Z" fill="#EC681C"/>
</g>
<defs>
<filter id="filter0_d_19_8" x="0" y="0" width="188" height="97.0055" filterUnits="userSpaceOnUse" color-interpolation-filters="sRGB">
<feFlood flood-opacity="0" result="BackgroundImageFix"/>
<feColorMatrix in="SourceAlpha" type="matrix" values="0 0 0 0 0 0 0 0 0 0 0 0 0 0 0 0 0 0 127 0" result="hardAlpha"/>
<feOffset dy="4"/>
<feGaussianBlur stdDeviation="2"/>
<feComposite in2="hardAlpha" operator="out"/>
<feColorMatrix type="matrix" values="0 0 0 0 0 0 0 0 0 0 0 0 0 0 0 0 0 0 0.25 0"/>
<feBlend mode="normal" in2="BackgroundImageFix" result="effect1_dropShadow_19_8"/>
<feBlend mode="normal" in="SourceGraphic" in2="effect1_dropShadow_19_8" result="shape"/>
</filter>
<clipPath id="clip0_19_8">
<rect width="180" height="89.0055" fill="white" transform="translate(4)"/>
</clipPath>
</defs>
</svg>
