<svg width="180" height="39" viewBox="0 0 180 39" fill="none" xmlns="http://www.w3.org/2000/svg">
<path fill-rule="evenodd" clip-rule="evenodd" d="M40.5312 1.70793H48.2008V36.1778H40.5312V1.70793ZM124.697 1.70793L119.372 20.8368H119.2L113.704 1.70793H103.741L98.2449 36.2082H105.803L109.238 11.4432H109.41L116.109 36.2082H122.464L129.163 11.4432L132.77 36.2082H140.5L134.831 1.70793H124.697ZM171.761 36.2082H179.834L166.093 1.70793H155.443L141.702 36.2082H149.26L152.008 29.2057H169.013L171.761 36.2082ZM160.596 7.8565L166.436 22.7155H154.584L160.596 7.8565ZM73.5105 15.713V22.7155H85.7059V23.2279C85.7059 27.8393 81.5835 31.0844 75.0564 31.0844C68.5292 31.0844 63.3762 27.4977 63.3762 19.1289C63.3762 10.4184 68.8728 7.17333 75.2281 7.17333C80.2094 7.17333 83.8165 8.02729 87.9389 10.0768L91.546 4.26984C87.2518 1.70793 80.8964 0.170793 75.0564 0.170793C64.5786 0.170793 55.1314 5.80698 55.1314 19.2997C55.1314 31.0844 63.3762 37.7454 74.7128 37.7454C87.4236 37.7454 93.4354 31.7676 93.6072 21.0076C93.6072 19.4705 93.6072 17.9333 93.4354 15.713H73.5105ZM25.0722 16.0546C20.2627 15.0298 16.9992 15.5422 12.1897 14.5174C9.09789 14.0051 8.23906 12.8095 8.23906 11.4432C8.23906 8.53967 12.0179 7.00253 16.9992 7.00253C20.9498 7.00253 24.9004 8.02729 28.6793 9.73523L32.4582 3.41587C28.3358 1.36635 22.6675 0 16.1403 0C9.95673 0 0.337782 2.90349 0.337782 11.9555C0.337782 17.0793 3.77312 20.3244 8.41082 21.3492C12.705 22.3739 15.4533 22.2031 20.6063 22.8863C24.0416 23.3987 25.4157 24.5943 25.4157 26.473C25.4157 29.2057 21.8086 30.9136 16.6556 30.9136C12.1897 30.9136 7.72376 30.0596 3.25782 28.1809L0.166016 34.6711C5.66256 37.0622 11.3309 38.0869 16.1403 38.0869C26.6181 38.0869 33.6606 33.4755 33.6606 25.9606C33.6606 20.8368 30.5688 17.2501 25.0722 16.0546Z" fill="#010101"/>
</svg>
