<svg xmlns="http://www.w3.org/2000/svg" viewBox="0 0 367.16 236.88"><defs><style>.cls-1{fill:#1d1d1b;}.cls-2{fill:#5e5e70;}.cls-3{fill:#7d9ea7;}.cls-4{fill:#fff;}.cls-5{fill:#fbe7c2;}.cls-6{fill:#601200;}.cls-7{fill:#e46b36;}</style></defs><g id="Calque_2" data-name="Calque 2"><g id="variante"><g id="appareil"><g id="fond"><path class="cls-1" d="M23.62,213.49A22.67,22.67,0,0,1,1,190.87V71.15l1.26-10v-.06A40.47,40.47,0,0,1,41.49,30.73H108c1.57,0,3.07,0,4.51.07s2.54.06,3.71.06c7.18,0,10.59-1.27,10.59-8.5C126.85,2.65,143.57,1,159.24,1h50c17.64,0,34,2.59,34,21.36L243,30.73H259.7a40.53,40.53,0,0,1,39.22,30.36v.06l1.26,10V191l-2.2,9.58-.05.1a22.46,22.46,0,0,1-20.37,12.82Z"/><path class="cls-1" d="M209.28,2c17.77,0,33,2.6,33,20.36l-.33,9.37H259.7A39.55,39.55,0,0,1,298,61.34l1.24,9.87h0V190.87L297,200.24a21.62,21.62,0,0,1-19.47,12.25H23.62A21.69,21.69,0,0,1,2,190.87V71.21H2l1.24-9.87A39.51,39.51,0,0,1,41.49,31.73H108c3,0,5.75.13,8.22.13,7,0,11.59-1.1,11.59-9.5h0C127.85,4.6,141.47,2,159.24,2h50m0-2h-50c-16.15,0-33.39,1.73-33.39,22.36,0,6.37-2.51,7.5-9.59,7.5-1.15,0-2.38,0-3.68-.06-1.45,0-3-.07-4.54-.07H41.49A41.46,41.46,0,0,0,1.31,60.84l0,.13,0,.12L0,71l0,.13V190.87A23.4,23.4,0,0,0,2.35,201.1a23.74,23.74,0,0,0,21.27,13.39H277.57a23.74,23.74,0,0,0,21.27-13.39l.1-.2.05-.22,2.15-9.36.05-.22V71l-1.25-9.87V61l0-.13A41.53,41.53,0,0,0,259.7,29.73H244l.25-7.3v-.07c0-8.9-3.69-15.18-11-18.65C226.42.44,217.3,0,209.28,0Z"/></g><g id="bouton"><g id="fond-2" data-name="fond"><path class="cls-1" d="M102.05,39.89l-.23-.13a30.85,30.85,0,0,0-15.33-4.1,31.27,31.27,0,0,0-5.54.5L66.68,38.75l-1-5.73.1-12.67,14.32.12,0-3.16,14.28.11,0,3.16,12.22.1-.15,19.24Z"/><path class="cls-1" d="M81.08,18.32l12.29.09,0,3.16,12.23.1-.14,17.24-3.11,0a31.73,31.73,0,0,0-21.55-3.71L67.49,37.59l-.84-4.66.09-11.57,14.32.12,0-3.16m-2-2,0,2v1.16l-12.31-.1h-2l0,2-.09,11.57v.18l0,.19.84,4.65.36,2,2-.36,13.27-2.4a30.39,30.39,0,0,1,5.37-.49,30,30,0,0,1,14.84,4l.45.26h.52l3.11,0,2,0,0-2,.14-17.24v-2l-2,0-10.22-.08V16.43l-2,0L81.1,16.32l-2,0Z"/></g><g id="bouton-2" data-name="bouton"><path class="cls-2" d="M108,39.89l-.22-.13a30.92,30.92,0,0,0-15.34-4.1,31.36,31.36,0,0,0-5.54.5L72.59,38.75l-1-5.73.1-12.67L86,20.47l0-3.16,14.29.11,0,3.16,12.23.1-.16,19.24Z"/><path class="cls-1" d="M87,18.32l12.28.09,0,3.16,12.23.1-.14,17.24-3.11,0a31.73,31.73,0,0,0-21.55-3.71L73.39,37.59l-.84-4.66.09-11.57L87,21.48l0-3.16m-2-2v3.16l-12.32-.1h-2l0,2-.09,11.57v.18l0,.19.84,4.65.36,2,2-.36L87,37.15a29.73,29.73,0,0,1,20.2,3.47l.45.26h.53l3.1,0,2,0,0-2,.14-17.24v-2l-2,0-10.22-.08V16.43l-2,0L87,16.32l-2,0Z"/></g></g><g id="appareil-2" data-name="appareil"><path class="cls-2" d="M41.62,213.58A22.67,22.67,0,0,1,19,191V71.24l1.26-10v-.06A40.48,40.48,0,0,1,59.49,30.81H126c1.57,0,3.07,0,4.51.08s2.54.06,3.71.06c7.18,0,10.59-1.27,10.59-8.5,0-19.71,16.72-21.36,32.39-21.36h50c17.64,0,34,2.59,34,21.36a8,8,0,0,0,8,8.36h8.42a40.55,40.55,0,0,1,39.22,30.37v.06l1.26,10V191.08l-2.2,9.58-.05.1a22.45,22.45,0,0,1-20.37,12.82Z"/><path class="cls-1" d="M227.28,2.09c17.77,0,33,2.6,33,20.36h0a9,9,0,0,0,9,9.36h8.42A39.57,39.57,0,0,1,316,61.43l1.24,9.87h0V191L315,200.32a21.61,21.61,0,0,1-19.47,12.26H41.62A21.7,21.7,0,0,1,20,191V71.3h0l1.24-9.87A39.52,39.52,0,0,1,59.49,31.81H126c3,0,5.75.14,8.22.14,7,0,11.59-1.1,11.59-9.5h0c0-17.76,13.62-20.36,31.39-20.36h50m0-2h-50c-16.15,0-33.39,1.73-33.39,22.36,0,6.37-2.51,7.5-9.59,7.5-1.15,0-2.38,0-3.68-.06-1.45,0-3-.08-4.54-.08H59.49A41.46,41.46,0,0,0,19.31,60.93l0,.13,0,.12L18,71.05l0,.13V191a23.4,23.4,0,0,0,2.35,10.23,23.74,23.74,0,0,0,21.27,13.39h254a23.74,23.74,0,0,0,21.27-13.39l.1-.2.05-.22,2.15-9.36.05-.22V71.05l-1.25-9.87v-.12l0-.13A41.55,41.55,0,0,0,277.7,29.81h-8.42a7.05,7.05,0,0,1-7-7.29v-.07c0-8.91-3.69-15.18-11-18.65-6.86-3.27-16-3.71-24-3.71Z"/></g></g><g id="bras_droit" data-name="bras droit"><path class="cls-3" d="M323.94,141.55c-5.61,0-11.2-1.05-16.61-2.07-2.45-.46-5-.94-7.48-1.31l-1-.15.15-1,.27-1.91c.17-1.19.31-2.13.5-3.08.16-.79.38-1.55.61-2.35.11-.35.21-.71.32-1.09l.23-.85.88.13c1.92.29,3.82.6,5.71.9,4,.64,8.22,1.31,12.32,1.83A40.73,40.73,0,0,0,325,131h0c7.72,0,10.79-3.13,13.13-13.39,0-.3.48-3.55.83-6.17.51-3.91.75-5.65.8-5.89l.17-.81.83,0A39.63,39.63,0,0,1,349,106.1l1,.24-.25,1c-.35,1.4-.88,4.07-1.49,7.16-1.15,5.87-2.59,13.17-3.66,15.82a16.22,16.22,0,0,1-11,10,37.55,37.55,0,0,1-9.71,1.21Z"/><path class="cls-1" d="M340.7,105.74a39,39,0,0,1,8.1,1.33c-1,4.13-3.53,18.94-5.11,22.86a15.26,15.26,0,0,1-10.3,9.45,36.73,36.73,0,0,1-9.45,1.17c-8,0-15.92-2.18-23.95-3.37.33-2.18.49-3.58.77-5,.22-1.09.57-2.14.91-3.36,6.1.93,12.06,2,18.05,2.73A43.34,43.34,0,0,0,325,132c8.38,0,11.74-3.79,14.1-14.17.1-.45,1.53-11.61,1.63-12.07m-1.6-2-.35,1.63c-.05.25-.19,1.25-.81,6-.34,2.53-.75,5.67-.83,6.12C334.88,127.16,332.16,130,325,130a39.12,39.12,0,0,1-5-.37c-4.08-.51-8.07-1.15-12.3-1.82-1.89-.3-3.79-.61-5.7-.9l-1.75-.27-.48,1.72c-.1.37-.21.73-.31,1.08-.24.81-.47,1.59-.63,2.42s-.33,1.93-.51,3.13l-.27,1.91-.3,2,2,.3c2.48.37,5,.84,7.45,1.3a90.82,90.82,0,0,0,16.79,2.09,38.5,38.5,0,0,0,10-1.24,17.24,17.24,0,0,0,11.65-10.63c1.1-2.74,2.49-9.79,3.71-16,.61-3.08,1.13-5.74,1.48-7.12l.49-2-2-.48a41.11,41.11,0,0,0-8.51-1.39l-1.67,0Z"/><path class="cls-4" d="M345.49,112.94H345l-.67,0-.52,0-.58-.06-.49-.07a4.85,4.85,0,0,1-.55-.09l-.47-.09-.51-.13-.44-.13-.48-.16-.41-.15-.43-.2a3.54,3.54,0,0,1-.39-.19c-.14-.07-.27-.15-.4-.23a2.66,2.66,0,0,1-.35-.23c-.13-.08-.25-.18-.37-.27l-.32-.26-.3-.29c-.15-.15-.22-.23-.29-.31a2.6,2.6,0,0,1-.26-.32l.72-.71-.8.61-.18-.25-.2-.33.78-.65-.86.5c-.05-.09-.1-.17-.14-.26s-.12-.26-.17-.39l-.06-.14-.1-.27a3.31,3.31,0,0,1-.12-.42l-.05-.18c0-.08-.05-.16-.07-.25s-.06-.34-.08-.51v-.1c0-.15,0-.23-.05-.31a9.36,9.36,0,0,1-.05-.94v-1h1.24c-4.45-1.8-8.52-4.31-10.36-10a12.21,12.21,0,0,1-.59-2.8,8.86,8.86,0,0,1,0-1.36,7.93,7.93,0,0,1,.58-2.61,9.32,9.32,0,0,1,2.54-3.44l.69-.61.66.63c.3.28.57.54.84.78l.75.66.27.22.41.33.26.2.35.24.2.12.35.21.22.11.27.11.21.07a1.22,1.22,0,0,0,.26.06l.19,0,.27,0h.32l.33,0,.21,0,.3-.07.24-.07.55-.18.11,0a4.19,4.19,0,0,0,2.45-1.17l.1-.1,1-.56,2,.71.14.13a5.06,5.06,0,0,0,3.38,1.2h.17l.24,0,2.63.92c.06-.15.12-.3.17-.45.13-.34.25-.66.37-1s.2-.51.31-.73l.4-.85.87.34c.31.13.63.26,1,.41l.1,0,.87.42.2.1.15.18a4.57,4.57,0,0,0,3.69,1.81,5.27,5.27,0,0,0,.68,0,3.33,3.33,0,0,0,1.32-.5l.14-.07a7.45,7.45,0,0,0,1.06-.78c.26-.22.51-.47.77-.73a4.46,4.46,0,0,0,.94-1.89,16.5,16.5,0,0,1,.61-1.63,1.34,1.34,0,0,1,1.24-.82,1.37,1.37,0,0,1,1.24.79l.29.55a3,3,0,0,1,.58,2.22l-.87,3-.26.93c-.36,1.28-.72,2.52-1.1,3.72-.29.91-.58,1.8-.9,2.68s-.68,1.78-1,2.59a13.36,13.36,0,0,1-.78,1.48l-.14.24a12.39,12.39,0,0,1-.9,1.22l-.17.19a12,12,0,0,1-1.09,1.07l-.09.07a10.14,10.14,0,0,1-1.17.82l-.19.12a10.46,10.46,0,0,1-1.3.63l-.27.11a11.82,11.82,0,0,1-1.4.44l-.14,0c-.49.11-1,.19-1.41.25l2.09.36.06.78a5.91,5.91,0,0,1-1.26,4.65c-1.3,1.46-3.61,2.19-7.24,2.31h-1Z"/><path class="cls-1" d="M364,82.68a.39.39,0,0,1,.34.22c.35.74.95,1.61.81,2.06-.4,1.36-.77,2.67-1.13,3.94s-.72,2.5-1.1,3.69c-.28.9-.57,1.77-.88,2.64s-.65,1.7-1,2.53h0a10.89,10.89,0,0,1-.71,1.36l-.14.22a9.31,9.31,0,0,1-.81,1.11l-.18.2a8.51,8.51,0,0,1-1,.94l-.09.07a9.88,9.88,0,0,1-1.05.74l-.17.1a9.93,9.93,0,0,1-1.18.58l-.25.09a10.62,10.62,0,0,1-1.28.41l-.18,0c-.43.1-.87.17-1.33.23l-.17,0A14,14,0,0,1,351,104h-.34q-.4,0-.81,0l-.37,0-1.19-.12h0c.1.44.21.89.31,1.34l5.41.93c.31,4-1.88,5.7-7.54,5.88H345l-.59,0-.49,0-.55,0-.46-.07-.52-.08-.43-.09-.47-.11-.4-.12c-.15,0-.3-.09-.44-.15l-.37-.14-.39-.17-.34-.17-.35-.2-.31-.2a3.55,3.55,0,0,1-.31-.23c-.09-.08-.19-.15-.27-.23a3.45,3.45,0,0,1-.28-.26,2.73,2.73,0,0,1-.23-.25,3.5,3.5,0,0,1-.24-.3,2.69,2.69,0,0,1-.2-.27c-.07-.1-.13-.22-.2-.34a2.49,2.49,0,0,1-.15-.28c-.06-.12-.11-.25-.17-.38l-.12-.3-.12-.44c0-.1-.06-.2-.08-.3a4.51,4.51,0,0,1-.08-.53,2.51,2.51,0,0,1,0-.27,8,8,0,0,1-.05-.86h5.88c-6.4-2.31-12.66-3.91-15.05-11.29a12.27,12.27,0,0,1-.55-2.59,10,10,0,0,1,0-1.22,7.14,7.14,0,0,1,.52-2.28,8.22,8.22,0,0,1,2.27-3.07l.86.79.24.22.53.46.29.24.43.35.29.2a3.28,3.28,0,0,0,.38.27c.09.07.19.12.28.18l.35.2.27.13.35.15.26.09.35.08.26,0a2,2,0,0,0,.35,0l.19,0h.32l.34,0,.26,0,.36-.08.27-.08.39-.13.13,0a5.25,5.25,0,0,0,3-1.45l.51-.28,1.44.51a6.06,6.06,0,0,0,4,1.44h.08l2,.71c-3.37,6.6-9.64,6-15.71,6.35l1.41.43.36.1c.47.13,1,.25,1.42.36h0c.46.1.91.17,1.36.23l.35,0a12.59,12.59,0,0,0,1.36.09h0c.23,0,.45,0,.68,0h.3c.33,0,.66-.08,1-.14a14.19,14.19,0,0,0,7-3.58c1.52-1.55,2.19-3.93,2.86-5.61.09-.24.19-.46.28-.67q.47.18.9.39l.1,0,.85.41h0a5.57,5.57,0,0,0,4.47,2.19,5.46,5.46,0,0,0,.8,0,4.24,4.24,0,0,0,1.73-.64l.12-.06a7.62,7.62,0,0,0,1.21-.89c.27-.23.54-.49.82-.76.95-.94,1-2.18,1.75-3.84a.36.36,0,0,1,.33-.22m0-2a2.35,2.35,0,0,0-2.16,1.42c-.28.64-.47,1.21-.64,1.71a3.67,3.67,0,0,1-.69,1.5c-.27.27-.51.49-.73.68a5.54,5.54,0,0,1-.86.65l-.1,0-.05,0-.06,0a2.35,2.35,0,0,1-.91.36l-.56,0a3.59,3.59,0,0,1-2.91-1.44l-.27-.34-.39-.2-.93-.44-.07,0c-.36-.16-.69-.31-1-.44l-1.74-.68-.8,1.69c-.11.25-.22.51-.33.79s-.13.34-.2.51l-.89-.31-.82-.28-.33-.12h-.46a4,4,0,0,1-2.67-1l-.29-.25-.36-.12L341.3,84l-.84-.29-.78.43-.35.19-.16.08-.25.14-.2.2a3.26,3.26,0,0,1-1.89.89l-.21,0-.2.08-.1,0-.3.1-.2.06-.24.05-.17,0-.19,0h-.44l-.11,0-.19,0-.14,0-.21-.08-.17-.09-.26-.14-.21-.14-.31-.21-.07-.06-.17-.12-.38-.31-.11-.08-.15-.13-.5-.43-.11-.1-.12-.11-.82-.77-1.33-1.25-1.37,1.21a10.36,10.36,0,0,0-2.8,3.81,9.06,9.06,0,0,0-.66,2.93,10.77,10.77,0,0,0,0,1.5,13.59,13.59,0,0,0,.64,3c1.71,5.27,5.15,8,9.07,9.8v.89a9.11,9.11,0,0,0,.06,1c0,.1,0,.2,0,.3v.09c0,.21.06.42.1.62l.09.33,0,.06v.07q.08.27.15.51a3.24,3.24,0,0,0,.13.33l0,.07,0,.06c.06.15.13.31.2.46a2,2,0,0,0,.18.32l0,.07,0,0c.08.14.16.28.25.42s.15.21.22.31l0,.06.33.41a3.83,3.83,0,0,0,.28.29l0,0,.37.36.33.27c.17.13.3.24.45.34l.4.25a4.83,4.83,0,0,0,.45.26l.42.22.49.21.46.18.52.17.47.14.55.13.51.11.58.09.52.07.62.07.54,0,.65,0h1.65c4-.13,6.44-.94,8-2.64a6.88,6.88,0,0,0,1.51-5.4l-.06-.77.22-.08.29-.11a10.42,10.42,0,0,0,1.42-.7l.18-.11a11,11,0,0,0,1.28-.89l.13-.1a11.41,11.41,0,0,0,1.17-1.15l0,0,.17-.2a12.89,12.89,0,0,0,1-1.32l.12-.2,0-.07a13.47,13.47,0,0,0,.83-1.58c.37-.84.72-1.71,1.07-2.66s.6-1.72.91-2.72c.37-1.17.71-2.34,1.11-3.74l.25-.87c.28-1,.57-2,.88-3.06a3.93,3.93,0,0,0-.66-3c-.09-.17-.19-.34-.26-.5A2.4,2.4,0,0,0,364,80.68Z"/><path class="cls-4" d="M357,88.13a3.64,3.64,0,0,1-.48,0l-.2,0-.42-.09-.21-.07-.37-.14-.21-.1-.33-.18-.2-.13c-.12-.08-.2-.15-.29-.22l-.2-.17c-.09-.07-.16-.15-.24-.22l-.18-.2-.21-.25-.16-.21-.18-.27-.15-.23-.15-.28-.13-.25c0-.09-.08-.19-.13-.29l-.1-.25c-.05-.11-.21-.56-.21-.56l-.16-.59c0-.1-.14-.6-.14-.6s-.05-.27-.07-.41l0-.2c0-.2-.05-.4-.07-.61-.15-1.44-.28-2.88-.41-4.32,0,.34,0,.68-.07,1,0,.62-.07,1.24-.09,1.87,0,.34,0,.68-.05,1s0,.71-.08,1.05a6,6,0,0,1-1.08,3,3.75,3.75,0,0,1-.84.8,4.86,4.86,0,0,1-2.44.84h-.17l-.48,0a6.21,6.21,0,0,1-1.14-.12l-.13,0a5.56,5.56,0,0,1-1-.33l-.12-.06a4.75,4.75,0,0,1-.83-.51l-.13-.11a5.77,5.77,0,0,1-.66-.65l-.1-.12a8.63,8.63,0,0,1-.52-.77l-.05-.1a7.24,7.24,0,0,1-.43-.89l0-.11c-.1-.27-.2-.56-.28-.85a4.87,4.87,0,0,1-.88,2.84,4.2,4.2,0,0,1-3,1.63h-.66l-.37,0-.46-.07-.37-.08-.45-.13-.37-.12a4.22,4.22,0,0,1-.45-.18l-.35-.15-.44-.23-.32-.19-.37-.25.48-.89-.58.82-.21-.16c-.14-.12-.26-.24-.38-.36l-.21-.22a3.11,3.11,0,0,1-.45-.71,21.33,21.33,0,0,1-1.42-4.61,22.63,22.63,0,0,1-.42-4.81c0-.48,0-.93.08-1.37l0-.35c0-.38.08-.76.14-1.12l0-.14c.06-.39.14-.76.23-1.12l0-.2c.1-.37.19-.66.29-.94l.05-.17a9.37,9.37,0,0,1,.4-.9l.08-.14a7.06,7.06,0,0,1,.45-.72l.1-.14a5.71,5.71,0,0,1,.6-.68l.12-.1a4.73,4.73,0,0,1,.59-.46l.18-.11a4.93,4.93,0,0,1,.77-.37l.13,0a7.16,7.16,0,0,1,.73-.19l.23,0a7.56,7.56,0,0,1,.85-.06,6.81,6.81,0,0,1,1.23.12l.26,0,.1,0c.3.07.61.14.93.24l.44.15c.31.11.62.24.94.38l.42.18c.34.16.68.33,1,.52l.47-.16.87-.31,1.06-.4.52-.18.36-.13c.17,0,.33-.11.5-.15l.34-.1.53-.12.31-.06a5.56,5.56,0,0,1,.69-.07h.18a4.36,4.36,0,0,1,.9.09,10,10,0,0,1,4.3,2.59l.36.33.54-.15,1-.3,1.2-.39.88-.27.1,0c.31-.09.61-.16.9-.22l.19,0a6.26,6.26,0,0,1,.71-.11l.31,0h.24l.39,0a1.84,1.84,0,0,1,.28,0,3,3,0,0,1,.88.25,6.87,6.87,0,0,1,2.76,2.86,13,13,0,0,1,.87,1.88,13.26,13.26,0,0,1,.53,1.9,18,18,0,0,1,.31,3.32,21.4,21.4,0,0,1-.13,2.26,16.8,16.8,0,0,1-.41,2.2c-.09.36-.19.72-.31,1.06-.73,2.22-2.89,5.64-5.19,5.92a5.38,5.38,0,0,1-.68,0Z"/><path class="cls-1" d="M346.28,65.93A3.23,3.23,0,0,1,347,66c2,.42,3.78,2.43,4.62,3q.53-.12,1.05-.27l.35-.1.71-.21.45-.14.75-.24.86-.27.1,0,.83-.21.24,0,.55-.09h.75l.21,0a2.47,2.47,0,0,1,.62.18h0a5.83,5.83,0,0,1,2.31,2.44,12.43,12.43,0,0,1,.8,1.74,11.36,11.36,0,0,1,.49,1.73,17.36,17.36,0,0,1,.16,5.28,15.88,15.88,0,0,1-.38,2.08c-.08.33-.18.66-.29,1-.69,2.09-2.67,5-4.36,5.24l-.56,0h-.16l-.37,0-.19,0-.3-.07a1.06,1.06,0,0,1-.19-.06l-.26-.1a1.11,1.11,0,0,1-.19-.09,1.71,1.71,0,0,1-.23-.13l-.17-.11-.22-.16-.16-.13L354.6,86l-.14-.16-.17-.21-.14-.17-.08-.13-.07-.1-.12-.19-.14-.25-.1-.21-.12-.26-.09-.22c0-.09-.07-.19-.11-.28l-.07-.22a1.81,1.81,0,0,1-.09-.31,1.87,1.87,0,0,1-.07-.22c0-.11,0-.22-.07-.33a1.42,1.42,0,0,1,0-.22c0-.12-.05-.24-.07-.37l0-.18c0-.19-.05-.38-.07-.57-.29-3-.55-5.93-.83-8.9l-1.19-.06c-.14,1.9-.33,3.8-.45,5.7q-.06.94-.09,1.89c0,.34,0,.67,0,1s-.05.66-.09,1a5,5,0,0,1-.87,2.52,3.21,3.21,0,0,1-.62.6,4.05,4.05,0,0,1-2,.65h-.17l-.39,0h0a5.64,5.64,0,0,1-.94-.1l-.09,0a3.76,3.76,0,0,1-.78-.26l-.11,0a3.39,3.39,0,0,1-.65-.41l-.09-.07a3.45,3.45,0,0,1-.54-.54l-.08-.09a4.94,4.94,0,0,1-.44-.65l-.06-.11q-.19-.36-.36-.75l0-.1a7.05,7.05,0,0,1-.28-.85.64.64,0,0,1,0-.07c-.08-.3-.15-.62-.21-.94-.33-1.94-.38-3.93-.53-5.89-.1-1.25-.18-2.49-.26-3.73l-1.61.12c.07,1.55.07,3.11.12,4.65a33.14,33.14,0,0,0,.25,3.46c.05.38.11.76.18,1.13.54,2.84-.42,4.83-2.89,5.11h-.51l-.3,0-.38-.06-.32-.07-.4-.11-.32-.11-.4-.16-.31-.13-.38-.21-.28-.15-.35-.25-.22-.16c-.12-.1-.21-.2-.31-.3s-.11-.1-.15-.15a2.05,2.05,0,0,1-.3-.47,20.65,20.65,0,0,1-1.36-4.4,21.1,21.1,0,0,1-.39-4.59c0-.46,0-.9.07-1.32l0-.33c0-.37.07-.73.13-1.07,0,0,0-.08,0-.12.06-.37.14-.72.22-1l.06-.25c.08-.28.16-.54.25-.79,0-.05,0-.11.05-.15a7.4,7.4,0,0,1,.35-.8l.1-.17a4.43,4.43,0,0,1,.35-.56l.09-.13a4.36,4.36,0,0,1,.49-.55l.11-.1a3.73,3.73,0,0,1,.46-.35l.14-.09a3.45,3.45,0,0,1,.61-.3l.12,0a2.91,2.91,0,0,1,.58-.15l.18,0a5.39,5.39,0,0,1,.71-.05h0a6.63,6.63,0,0,1,1.05.1l.32.07c.27.06.54.13.83.22l.41.13.87.35c.13.06.26.11.39.18a14.27,14.27,0,0,1,1.34.69l.9-.29.33-.12.57-.2.57-.21.49-.19.51-.18.34-.12.46-.15.32-.09.47-.1.27-.06a5.54,5.54,0,0,1,.56,0h.16m0-2H346c-.27,0-.52,0-.75.08l-.29,0-.07,0-.59.13-.35.1-.55.17-.37.13-.53.2-.14.05L342,65l-.56.21-.51.19-.14,0-.19.07,0,0-.69-.34-.33-.15-.12,0c-.36-.16-.69-.29-1-.4l-.48-.16c-.33-.1-.66-.19-1-.27h-.08l-.32-.07a8.75,8.75,0,0,0-1.37-.13h0a6.9,6.9,0,0,0-1,.08l-.22,0a8.18,8.18,0,0,0-.89.23l-.18.06a5.68,5.68,0,0,0-.93.45l-.19.12a6.76,6.76,0,0,0-.72.54l-.16.15a6.49,6.49,0,0,0-.7.78l-.12.17a6.17,6.17,0,0,0-.48.77l-.13.23c-.16.32-.31.66-.44,1l-.06.17q-.17.47-.3,1l-.07.3a11.17,11.17,0,0,0-.25,1.2l0,.13c-.06.37-.1.76-.14,1.2,0,.11,0,.23,0,.35,0,.53-.06,1-.07,1.43a22.67,22.67,0,0,0,.43,5,23.31,23.31,0,0,0,1.48,4.82,4,4,0,0,0,.6.95,2,2,0,0,0,.25.26,5.29,5.29,0,0,0,.47.45,2.69,2.69,0,0,0,.27.2l.05,0,.48.33.29.17.07,0c.16.09.32.18.49.26l.33.15.05,0,.51.2.39.13c.19.06.36.11.54.15a3.15,3.15,0,0,0,.42.09,4.85,4.85,0,0,0,.53.08l.43,0h.82a5.18,5.18,0,0,0,3.73-2,4.2,4.2,0,0,0,.33-.49c.09.14.19.27.3.41l.11.13a5.9,5.9,0,0,0,.79.79l.13.1a5.87,5.87,0,0,0,1,.64l.15.07a5.83,5.83,0,0,0,1.18.39l.17,0a7.85,7.85,0,0,0,1.3.13l.52,0h.23a5.83,5.83,0,0,0,2.93-1,4.79,4.79,0,0,0,1.05-1,5.27,5.27,0,0,0,.67-1.13,1.8,1.8,0,0,0,.08.21,2.44,2.44,0,0,0,.1.24,3.3,3.3,0,0,0,.17.37l.13.27.18.33c.06.09.11.18.17.26a.83.83,0,0,0,.08.12l0,0a.71.71,0,0,0,.1.14,2.35,2.35,0,0,0,.19.25,3.36,3.36,0,0,0,.24.29l.22.24a3.45,3.45,0,0,0,.28.26l.24.21.33.24a3.16,3.16,0,0,0,.27.18l.36.2.29.15.39.14.06,0,.27.09.44.1.32.06.55,0h.23a5.47,5.47,0,0,0,.82,0c3-.36,5.36-4.6,6-6.6.12-.36.23-.74.33-1.12a19.56,19.56,0,0,0,.43-2.33,21.11,21.11,0,0,0,.14-2.38,18.25,18.25,0,0,0-.33-3.51,12.61,12.61,0,0,0-.57-2.05,14,14,0,0,0-.94-2,7.88,7.88,0,0,0-3.2-3.27,4,4,0,0,0-1.16-.34l-.32,0-.51,0h-.28l-.37,0c-.23,0-.47.06-.72.1h-.05l-.24,0-.95.24-.09,0-.92.28-.76.24-.36.12-.08,0-.67.2-.08,0-.25.07h0A10.58,10.58,0,0,0,347.37,64a5.44,5.44,0,0,0-1.09-.11Z"/></g><g id="contour"><circle class="cls-1" cx="186.98" cy="133.94" r="101.95" transform="translate(20.1 292.21) rotate(-79.1)"/><path class="cls-1" d="M187,33A100.95,100.95,0,1,1,86,133.94,100.95,100.95,0,0,1,187,33m0-2a102.95,102.95,0,1,0,102.94,103A103.06,103.06,0,0,0,187,31Z"/></g><g id="contour-2" data-name="contour"><circle class="cls-2" cx="204.58" cy="133.94" r="101.95"/><path class="cls-1" d="M204.58,33A100.95,100.95,0,1,1,103.64,133.94,101,101,0,0,1,204.58,33m0-2a102.95,102.95,0,1,0,102.95,103A103.06,103.06,0,0,0,204.58,31Z"/></g><g id="bras_gauche" data-name="bras gauche"><path class="cls-3" d="M71.19,144.05a37.5,37.5,0,0,1-9.71-1.2,16.26,16.26,0,0,1-11-10c-1.07-2.66-2.51-10-3.66-15.82-.62-3.09-1.14-5.77-1.49-7.17l-.25-1,1-.25a39.76,39.76,0,0,1,8.31-1.35l.83,0,.18.81c.05.24.28,2,.79,5.79.35,2.66.78,6,.84,6.28,2.34,10.25,5.41,13.38,13.13,13.38a40.86,40.86,0,0,0,5.12-.37c4.1-.52,8.28-1.19,12.32-1.83l5.71-.9.87-.13.24.86c.1.37.21.73.31,1.09.24.79.46,1.55.62,2.34.19.94.32,1.88.49,3.07.08.57.17,1.2.28,1.92l.15,1-1,.15c-2.5.37-5,.85-7.49,1.31C82.38,143,76.79,144.05,71.19,144.05Z"/><path class="cls-1" d="M54.42,108.25c.1.45,1.53,11.61,1.64,12.06,2.36,10.38,5.71,14.17,14.1,14.17a41.38,41.38,0,0,0,5.24-.38c6-.76,12-1.8,18.06-2.73.33,1.22.69,2.28.91,3.36.27,1.38.43,2.77.76,5-8,1.2-15.91,3.37-23.94,3.37a36.8,36.8,0,0,1-9.46-1.17,15.26,15.26,0,0,1-10.3-9.45c-1.58-3.92-4.07-18.73-5.1-22.86a38.27,38.27,0,0,1,8.09-1.32m1.6-2-1.66,0a40.58,40.58,0,0,0-8.52,1.38l-1.94.49.49,1.94c.34,1.38.87,4,1.47,7.12,1.23,6.21,2.61,13.26,3.72,16a17.21,17.21,0,0,0,11.64,10.63,38.2,38.2,0,0,0,10,1.24c5.7,0,11.33-1.06,16.78-2.08,2.45-.46,5-.94,7.46-1.31l2-.29-.3-2c-.11-.71-.2-1.33-.28-1.9-.17-1.21-.31-2.16-.5-3.14s-.39-1.6-.64-2.42c-.1-.35-.2-.71-.31-1.08l-.47-1.71-1.76.27-5.7.89c-4.22.67-8.21,1.31-12.3,1.83a40.54,40.54,0,0,1-5,.36c-7.19,0-9.92-2.82-12.15-12.58-.07-.45-.49-3.59-.82-6.12-.62-4.7-.76-5.71-.81-6L56,106.2Z"/><path class="cls-4" d="M49.32,115.44H48.6c-3.64-.11-5.94-.85-7.25-2.31a5.94,5.94,0,0,1-1.26-4.65l.06-.78,2.1-.35c-.49-.07-.93-.15-1.36-.24l-.19,0a10.22,10.22,0,0,1-1.4-.44L39,106.5a10.31,10.31,0,0,1-1.29-.63l-.14-.08a11.71,11.71,0,0,1-1.22-.86l-.1-.07a11.35,11.35,0,0,1-1.06-1L35,103.6a11.6,11.6,0,0,1-.9-1.22L34,102.2a13.77,13.77,0,0,1-.81-1.53c-.36-.82-.7-1.67-1-2.6s-.62-1.76-.9-2.68c-.38-1.2-.74-2.44-1.11-3.72l-.26-.92c-.28-1-.56-2-.87-3a3.06,3.06,0,0,1,.59-2.21l.22-.42a1.45,1.45,0,0,1,2.64.1c.21.51.37,1,.51,1.42a4.5,4.5,0,0,0,.94,1.9c.27.26.52.5.78.72a6,6,0,0,0,1,.77l.15.08a3.28,3.28,0,0,0,1.32.5,5.16,5.16,0,0,0,.67.05,4.58,4.58,0,0,0,3.7-1.82l.13-.17.2-.1.89-.42.1,0c.31-.14.63-.28,1-.4l.87-.34.4.84c.1.23.21.47.31.73s.24.63.37,1l.16.45,2.81-1H49a5,5,0,0,0,3.41-1.2l.15-.12,2-.72,1,.56.1.11a4.24,4.24,0,0,0,2.46,1.16l.1,0,.56.19.24.07.29.06.21,0,.28,0,.29,0,.09,0a1.1,1.1,0,0,0,.26,0l.19,0,.27-.07.2-.07.27-.11.23-.11.3-.18a2.75,2.75,0,0,0,.25-.15l.34-.24.27-.2c.13-.09.27-.21.4-.32l.28-.23c.16-.13.74-.65.74-.65l.85-.79.66-.62.68.6A9.52,9.52,0,0,1,69,89.81a8.19,8.19,0,0,1,.58,2.61,8.89,8.89,0,0,1,0,1.36,12.77,12.77,0,0,1-.6,2.81c-1.83,5.68-5.9,8.19-10.35,10h1.24v1c0,.33,0,.65-.05,1,0,.08,0,.16,0,.23l-1-.06,1,.18a5,5,0,0,1-.09.56c0,.08,0,.17-.06.26l-1-.17.94.34c0,.14-.07.28-.12.42a2.77,2.77,0,0,1-.1.26l0,.1c-.08.2-.13.32-.19.44l-.15.27L58,111l.87.49-.21.36-.19.26-.87-.51.8.6-.26.33-.24.25c-.14.14-.24.25-.36.35l-.28.23-.4.3c-.11.08-.23.15-.35.22s-.26.16-.4.23l-.39.19-.44.2-.41.16-.48.16-.44.12-.51.13-.46.1-.55.09-.5.06c-.18,0-.38,0-.58.06l-.52,0-.62,0h-.86Z"/><path class="cls-1" d="M31.12,85.31a.45.45,0,0,1,.42.28c.65,1.57.77,2.75,1.68,3.65.28.27.55.53.82.77a7.7,7.7,0,0,0,1.21.88l.12.06a4.35,4.35,0,0,0,1.73.65,7.13,7.13,0,0,0,.79.05,5.62,5.62,0,0,0,4.48-2.19h0l.85-.41.09,0,.9-.38c.1.2.19.43.29.67.66,1.67,1.34,4,2.86,5.6a14.15,14.15,0,0,0,7,3.58c.32.06.64.11,1,.14l.31,0,.67,0h0a12.77,12.77,0,0,0,1.37-.09l.34,0c.45-.06.91-.13,1.36-.23h0c.48-.1.95-.23,1.43-.36l.36-.1c.47-.13.93-.28,1.4-.43-6.06-.34-12.33.26-15.7-6.34l2-.71H49a6,6,0,0,0,4-1.44l1.43-.51.52.28a5.19,5.19,0,0,0,3,1.45l.13,0,.38.12.28.08.36.08.26,0,.34,0h.32l.18,0a2.19,2.19,0,0,0,.36,0l.26,0,.35-.09.26-.09.34-.14L62.1,90l.36-.2.28-.17.38-.27.29-.21.43-.35.28-.23.53-.47.25-.22c.27-.24.55-.51.85-.79A8.33,8.33,0,0,1,68,90.19a6.87,6.87,0,0,1,.51,2.29,7,7,0,0,1,0,1.21A11.67,11.67,0,0,1,68,96.28c-2.39,7.38-8.64,9-15,11.3H58.8a7.81,7.81,0,0,1,0,.85c0,.1,0,.18,0,.27s0,.36-.08.53-.06.2-.08.3-.08.3-.13.44-.08.2-.12.3-.1.26-.16.38l-.16.29-.2.34-.19.26-.24.31-.24.24c-.09.09-.17.18-.27.27l-.27.22-.32.23-.3.2-.35.2-.34.17-.4.18-.37.14-.43.14-.4.12-.47.11-.44.09-.51.09-.46.06-.55.06-.5,0c-.19,0-.39,0-.59,0H48.63c-5.67-.18-7.86-1.85-7.54-5.88l5.41-.93c.1-.44.21-.89.31-1.34h0c-.4.06-.8.1-1.19.13l-.38,0-.8,0h-.35a14.19,14.19,0,0,1-1.47-.07l-.16,0a11.34,11.34,0,0,1-1.34-.23l-.17,0a10.74,10.74,0,0,1-1.29-.4l-.24-.1a10.73,10.73,0,0,1-1.18-.57l-.17-.11a9.59,9.59,0,0,1-1.06-.74l-.08-.06a10.84,10.84,0,0,1-1-.95c-.05-.07-.11-.13-.17-.2a10.63,10.63,0,0,1-.82-1.11l-.13-.22a11.6,11.6,0,0,1-.72-1.36h0c-.36-.83-.7-1.67-1-2.53s-.61-1.74-.89-2.64c-.37-1.19-.73-2.42-1.09-3.69s-.74-2.58-1.14-3.94c-.12-.42.39-1.2.74-1.9a.44.44,0,0,1,.4-.25m0-2h0a2.42,2.42,0,0,0-2.18,1.35l-.21.39a3.91,3.91,0,0,0-.66,3c.3,1,.59,2.06.88,3l.24.87c.41,1.4.75,2.58,1.11,3.74.32,1,.62,1.89.92,2.72s.69,1.82,1.06,2.66a13,13,0,0,0,.84,1.59l0,.06.13.2a11.38,11.38,0,0,0,1,1.33l.17.19,0,0a11.46,11.46,0,0,0,1.18,1.15l.13.1a10.68,10.68,0,0,0,1.25.88l.21.13a12.32,12.32,0,0,0,1.41.69l.3.12.22.08-.06.76a6.87,6.87,0,0,0,1.51,5.4c1.52,1.7,4,2.52,8,2.64H50.2l.66,0,.55,0,.61-.06.53-.07.58-.1.5-.11.55-.13.48-.14.52-.17.45-.17.49-.22.43-.21.45-.27.4-.25c.14-.1.28-.2.41-.31a3,3,0,0,0,.36-.3l.37-.34.05-.05c.09-.1.19-.2.27-.3s.21-.25.31-.38l.06-.08c.08-.11.16-.21.23-.32s.17-.27.25-.41l0,0,0-.06.18-.33c.07-.15.13-.3.19-.46l0-.06,0-.06c0-.11.09-.22.13-.34s.1-.33.14-.5l0-.07,0-.07a3,3,0,0,0,.08-.32c0-.21.07-.42.1-.63v0c0-.14,0-.23,0-.34,0-.34,0-.69,0-1v-.89c3.92-1.85,7.36-4.53,9.07-9.8a14.43,14.43,0,0,0,.64-3,10.91,10.91,0,0,0,0-1.51,9.06,9.06,0,0,0-.66-2.93,10.28,10.28,0,0,0-2.81-3.81l-1.36-1.21-1.33,1.26-.83.76-.11.11-.12.1-.49.43-.16.13-.1.09-.38.3-.17.13-.08,0-.31.22-.2.13-.26.14-.18.09-.2.09-.15,0-.17,0-.13,0-.17,0h-.26l-.2,0-.16,0-.24-.05-.2-.06-.3-.1-.13,0-.2-.07-.18,0a3.28,3.28,0,0,1-1.89-.88l-.2-.21L56,86.94l-.16-.09-.34-.19-.78-.43-.85.3-1.43.5-.36.13-.29.24a4,4,0,0,1-2.68,1h-.45l-.33.12-1,.33-.76.27c-.07-.18-.14-.35-.2-.52s-.22-.54-.34-.78l-.79-1.7-1.74.68-1,.43-.11,0-.9.43-.4.19-.28.35a3.61,3.61,0,0,1-2.92,1.45,5.28,5.28,0,0,1-.55,0,2.19,2.19,0,0,1-.92-.36l-.05,0,0,0-.1,0a6.11,6.11,0,0,1-.87-.64c-.22-.19-.45-.42-.73-.69a3.87,3.87,0,0,1-.69-1.5c-.14-.43-.31-.93-.54-1.48a2.45,2.45,0,0,0-2.27-1.52Z"/><path class="cls-4" d="M37.89,90.65a5.29,5.29,0,0,1-.67-.05c-2.3-.28-4.46-3.69-5.2-5.92-.11-.34-.21-.69-.3-1.06a17.44,17.44,0,0,1-.41-2.2,18.55,18.55,0,0,1-.13-2.26,17.23,17.23,0,0,1,.31-3.32A10.74,10.74,0,0,1,32,74a12.55,12.55,0,0,1,.87-1.89,6.82,6.82,0,0,1,2.75-2.85,2.9,2.9,0,0,1,.89-.26l.24,0,.43,0h.24l.31,0c.21,0,.42.06.63.1l.27,0c.29.06.58.14.89.23l.12,0,.87.27,1.2.38.8.24.23.06.54.15.36-.32a9.81,9.81,0,0,1,4.3-2.6,4.17,4.17,0,0,1,.88-.09H49a5.23,5.23,0,0,1,.68.07l.24,0,.61.14.3.09.54.16,1,.38.9.33.86.32.47.15c.35-.19.69-.36,1-.52l.42-.18c.32-.14.64-.27,1-.37a4,4,0,0,1,.45-.15,8.18,8.18,0,0,1,.91-.24l.1,0,.26,0A7.85,7.85,0,0,1,60,67.46h0a5.92,5.92,0,0,1,.88.07l.18,0a4.68,4.68,0,0,1,.76.19l.14,0a4.63,4.63,0,0,1,.78.37l.14.09a5.14,5.14,0,0,1,.61.47l.14.12a5.34,5.34,0,0,1,.59.66l.09.12a6.73,6.73,0,0,1,.44.7l.11.2a8.39,8.39,0,0,1,.39.9l0,.13c.11.31.2.6.28.9l.07.28a11,11,0,0,1,.23,1.12l0,.13c0,.36.1.74.14,1.13l0,.34c0,.44.06.9.07,1.37a22.54,22.54,0,0,1-1.83,9.42,3.49,3.49,0,0,1-.45.71l-.17.18c-.17.17-.29.29-.42.4l-.22.16L62.36,87l.6.8c-.13.09-.24.18-.38.26l-.26.15c-.21.12-.35.19-.5.26l-.28.13-.52.21-.35.11L60.2,89l-.36.07a4.11,4.11,0,0,1-.47.07,2.19,2.19,0,0,1-.36,0h-.66a4.17,4.17,0,0,1-3-1.63,4.8,4.8,0,0,1-.88-2.84c-.1.32-.19.59-.29.85l0,.11a7.73,7.73,0,0,1-.41.87l-.07.13a6.39,6.39,0,0,1-.52.76l-.1.12a4.57,4.57,0,0,1-.66.66l-.09.07a4.52,4.52,0,0,1-.86.54l-.1,0a4.73,4.73,0,0,1-1,.34l-.12,0a5.43,5.43,0,0,1-1.13.12l-.44,0h-.22a5,5,0,0,1-2.45-.83,4.49,4.49,0,0,1-.83-.8,5.93,5.93,0,0,1-1.08-3c0-.34-.07-.69-.09-1s0-.69,0-1c0-.62,0-1.25-.09-1.87,0-.34,0-.68-.07-1-.13,1.44-.27,2.88-.41,4.33,0,.2,0,.4-.08.61,0,0-.07.47-.1.6l-.14.61s-.13.46-.17.58l-.2.57-.11.24a2.55,2.55,0,0,1-.13.29l-.12.25-.16.29-.22.34-.11.16-.15.2-.21.25-.18.2-.24.22c-.08.07-.14.13-.21.18a2,2,0,0,1-.26.19l-.22.15a2.69,2.69,0,0,1-.29.16l-.25.12-.3.12-.28.09-.35.08-.27,0a3.71,3.71,0,0,1-.47,0l-.19,0Z"/><path class="cls-1" d="M48.85,68.43H49a5.51,5.51,0,0,1,.57.06l.27,0a4.52,4.52,0,0,1,.47.11l.31.09.47.14.34.12.5.18.5.19.57.21.57.21.32.11.91.29c.46-.26.9-.49,1.33-.69l.39-.17c.3-.13.6-.25.88-.35l.41-.14c.28-.09.56-.16.83-.22l.32-.07a7.75,7.75,0,0,1,1-.1h0a4.17,4.17,0,0,1,.71.06l.18,0a5.47,5.47,0,0,1,.58.15l.11,0a4.39,4.39,0,0,1,.62.29l.13.09a3.25,3.25,0,0,1,.47.36l.11.09a6.6,6.6,0,0,1,.49.55l.09.13a6,6,0,0,1,.35.56L64,71a7.41,7.41,0,0,1,.36.8s0,.1.05.15c.09.25.17.52.24.79,0,.09,0,.17.07.25q.12.5.21,1s0,.09,0,.13c0,.34.1.7.13,1.07l0,.32c0,.43.06.86.07,1.32a21.78,21.78,0,0,1-.39,4.6,21.33,21.33,0,0,1-1.36,4.39,1.86,1.86,0,0,1-.3.47l-.15.15c-.1.1-.19.2-.31.3l-.23.17-.35.24c-.08.06-.18.1-.27.16s-.25.14-.39.2l-.3.13-.4.17-.32.1-.41.11-.31.07a2.63,2.63,0,0,1-.39.06l-.3,0h-.51C56,87.93,55,85.93,55.57,83.1q.1-.57.18-1.14c.15-1.14.21-2.29.25-3.45,0-1.55,0-3.11.12-4.65l-1.61-.13c-.09,1.24-.16,2.49-.26,3.73-.16,2-.2,4-.54,5.89a7.66,7.66,0,0,1-.21,1s0,0,0,.06c-.08.3-.18.58-.28.85a.3.3,0,0,1,0,.1,5.18,5.18,0,0,1-.35.75l-.06.11a4.94,4.94,0,0,1-.44.65l-.08.1a5.39,5.39,0,0,1-.54.53l-.1.08a4.22,4.22,0,0,1-.65.41l-.1,0a4.47,4.47,0,0,1-.78.27H50a4.59,4.59,0,0,1-.94.1h0l-.39,0h-.17a3.82,3.82,0,0,1-2-.65,2.72,2.72,0,0,1-.62-.6A5.1,5.1,0,0,1,45,84.56c0-.32-.06-.65-.08-1s0-.67,0-1c0-.64,0-1.27-.09-1.9-.12-1.9-.31-3.8-.45-5.69L43.16,75c-.28,3-.54,5.94-.84,8.91a5.35,5.35,0,0,1-.07.56,1.13,1.13,0,0,1,0,.18l-.06.38c0,.07,0,.14,0,.21s0,.22-.08.33l-.06.22-.09.31a1.43,1.43,0,0,1-.08.22c0,.1-.06.19-.1.29l-.09.21-.12.27c0,.07-.07.14-.11.2s-.09.17-.13.25l-.12.19-.07.11L41,88l-.13.18c-.05.07-.11.13-.17.2l-.15.16-.19.18-.16.14L40,89l-.17.12-.24.12-.18.1-.26.09-.19.07-.3.06-.19,0c-.12,0-.24,0-.37,0h-.17a5.28,5.28,0,0,1-.55,0c-1.69-.2-3.68-3.15-4.37-5.24-.1-.32-.2-.65-.28-1a17.37,17.37,0,0,1-.39-2.08,19.05,19.05,0,0,1-.12-2.14A16.87,16.87,0,0,1,32.47,76,10.42,10.42,0,0,1,33,74.29a12.32,12.32,0,0,1,.8-1.73,5.8,5.8,0,0,1,2.31-2.45h0a2.13,2.13,0,0,1,.61-.17.75.75,0,0,1,.21,0l.31,0h.18l.26,0,.56.08.23,0a7.36,7.36,0,0,1,.84.21l.09,0,.86.26.76.24.45.14.7.21.36.11c.34.09.69.19,1,.27.84-.6,2.57-2.61,4.62-3a3.11,3.11,0,0,1,.69-.07m0-2a5.44,5.44,0,0,0-1.09.11A10.61,10.61,0,0,0,43,69.33h0l-.24-.07-.08,0L42,69,42,69l-.36-.12-.76-.24-.91-.27-.1,0-1-.24-.23,0h-.06a6.12,6.12,0,0,0-.71-.11l-.37,0H37.2l-.47,0-.36,0a4.3,4.3,0,0,0-1.15.34A7.77,7.77,0,0,0,32,71.57a13,13,0,0,0-.94,2,13.77,13.77,0,0,0-.58,2.05,19.25,19.25,0,0,0-.32,3.51,18.78,18.78,0,0,0,.14,2.38,17.44,17.44,0,0,0,.43,2.33c.09.38.2.76.32,1.13.66,2,3,6.23,6,6.6a7,7,0,0,0,.79.05l.28,0a3.32,3.32,0,0,0,.53,0l.27,0,.49-.11.27-.08-.62-1.91.67,1.89.39-.15.26-.13a3.6,3.6,0,0,0,.4-.22l.25-.16.34-.25.25-.21.28-.27.22-.23.24-.3a2.35,2.35,0,0,0,.19-.25l.1-.14,0,0,.08-.13a2.26,2.26,0,0,0,.16-.26q.09-.15.18-.33a2.15,2.15,0,0,0,.14-.26l.15-.34c.05-.11.09-.2.12-.28l.08-.2a5.11,5.11,0,0,0,.67,1.13,5.19,5.19,0,0,0,1,1,6,6,0,0,0,2.94,1h.23l.51,0a6.7,6.7,0,0,0,1.34-.14l.13,0a5.66,5.66,0,0,0,1.18-.4l.15-.07a5.74,5.74,0,0,0,1-.62L53,89a5.43,5.43,0,0,0,.8-.79l.11-.13c.1-.13.21-.27.3-.41.1.17.21.34.32.5a5.21,5.21,0,0,0,3.73,2h.83l.43,0,.53-.08.42-.09.52-.15.4-.13a4.55,4.55,0,0,0,.51-.21l.06,0c.11,0,.22-.09.33-.15l.48-.25.07,0,.3-.17a4.91,4.91,0,0,0,.44-.31l.08,0,.28-.21a5.07,5.07,0,0,0,.46-.44,3.25,3.25,0,0,0,.26-.27,4.24,4.24,0,0,0,.59-.95,22.46,22.46,0,0,0,1.49-4.81,23.32,23.32,0,0,0,.43-5c0-.45,0-.9-.08-1.43L67,75c0-.44-.09-.83-.14-1.19l0-.14c-.07-.39-.15-.79-.25-1.2l-.06-.25a9.82,9.82,0,0,0-.31-1l-.06-.19a9.88,9.88,0,0,0-.45-1l-.1-.19c-.17-.3-.33-.56-.49-.79L65,68.9a6.47,6.47,0,0,0-.7-.77c0-.06-.11-.1-.16-.15a6.78,6.78,0,0,0-.7-.53,1,1,0,0,0-.21-.13,5.35,5.35,0,0,0-.93-.46l-.21-.06a5.54,5.54,0,0,0-.83-.22l-.25,0a7,7,0,0,0-1-.08,9.86,9.86,0,0,0-1.4.13l-.33.07-.07,0a10.13,10.13,0,0,0-1,.26l-.48.16-1,.4-.11,0-.33.15c-.24.11-.47.22-.69.34l-.05,0L54.35,68l-.11,0-.54-.19-.56-.21-.37-.14-.14-.05-.53-.19L51.73,67l-.53-.17-.38-.11-.59-.13h-.06l-.29-.06a6,6,0,0,0-.76-.07l-.25,0h0Z"/></g><g id="tete"><circle class="cls-3" cx="204.58" cy="133.94" r="82.19"/><path class="cls-1" d="M204.58,52.74a81.2,81.2,0,1,1-81.19,81.2,81.21,81.21,0,0,1,81.19-81.2m0-2a83.2,83.2,0,1,0,83.2,83.2,83.29,83.29,0,0,0-83.2-83.2Z"/></g><g id="sous_visage" data-name="sous visage"><path class="cls-5" d="M214.59,192.84c-.39,0-.77,0-1.16,0l-.76,0-1-.06-1.23-.11-1.23-.14L208,192.3l-.28,0-.71-.11-.11,0c-.76-.12-1.47-.25-2.18-.39l-.74-.14-.48-.1-.09,0c-.82-.18-1.59-.38-2.36-.57l-.29-.07-.41-.1-.31-.08c-1.29-.36-2.45-.71-3.54-1.07-.83-.28-1.66-.58-2.48-.9a59.77,59.77,0,0,1-18.86-11.31c-.73-.66-1.36-1.26-1.92-1.84l-.13-.12c-6-6.19-12.08-16.14-11.46-21.05a3.82,3.82,0,0,1,.88-2.12l.09-.1.2-.15a2.41,2.41,0,0,1,.41-.34l.08,0,.26-.15.08,0h0a4.18,4.18,0,0,1,.68-.26l.15,0,.26,0c.23,0,.48-.08.74-.1l.4,0h.17l.58,0h.31a8.08,8.08,0,0,1,.86.11h0l.13,0h0l1.09.22.84.21.66.17,1.12.35c.41.13.8.27,1.19.41l1.19.44.4.16,1.17.48,1.14.48c.71.29,1.46.59,2.22.88l.7.27,1.72.63.46.16.31.11c.71.24,1.43.48,2.17.71l.36.11c.77.24,1.56.46,2.36.69l.48.13.5.13,2,.5.89.2c.82.18,1.65.35,2.5.51l.37.07c1,.18,1.93.33,2.91.47l.23,0,.51.06,2.31.26.25,0,.47.05h.22c1.12.09,2.15.15,3.15.18.77,0,1.44,0,2.11,0l1.36,0h.51l1-.05c.71,0,1.34-.06,2-.11l.47,0,.52,0c1.33-.13,2.44-.25,3.49-.41.83-.12,1.65-.26,2.45-.41l.42-.08c.75-.14,1.49-.3,2.22-.47l.43-.1q1.11-.26,2.16-.54l.42.92-.27-1c.69-.18,1.35-.38,2-.57l.33-.1c.65-.2,1.29-.41,1.91-.62l.39-.13,1.81-.63.15-.06c.65-.23,1.19-.44,1.72-.64l.26-.1,1.63-.63L237,153c.46-.19.92-.36,1.37-.52l.26-.1,1.29-.44.71-.22.43.92-.29-1,.6-.18.3-.07.12,0,.62-.14.18,0,.25,0h.09c.29-.05.59-.09.88-.12h1.44l.07,0,.32,0-.05,1,.15-1,.17,0,.26.06.5.15.09,0,.29.12.46.23.27.15.06,0,.17.12.12.09.27.2c2,1.73,3,5,2.74,9.32a35.84,35.84,0,0,1-5.62,16.49c-.5.77-1,1.51-1.55,2.21a29.59,29.59,0,0,1-3.53,3.91A31.83,31.83,0,0,1,225,192l-1.21.25v0h-.06v0l-1.37.2c-.37.05-.75.09-1.13.12l-.48.05-.41,0-.84.08h-.12l-.63,0-1.25.06-1,0h-.39Z"/><path class="cls-1" d="M165.88,152h.17l.53,0h.31c.26,0,.55.06.83.1h.13l.31.06.34.07h.07l.1,0,.21,0,.36.09.25.06.08,0,.43.11c.11,0,.22,0,.33.09q.54.15,1.08.33h0q.57.18,1.14.39l.36.13.81.3.39.16.81.33.35.14,1.12.48,2.26.9.7.26,1.75.64.46.17h0l.3.1q1.07.38,2.19.72l.36.12c.78.24,1.59.47,2.4.69l.24.07.23.07h0l.51.13,2,.5.34.08.29.07.27.06c.83.18,1.68.35,2.54.51l.37.08c1,.17,2,.33,3,.47l.18,0h0c.17,0,.35,0,.52.06.77.1,1.55.19,2.34.26l.26,0,.47,0h.23c1.06.09,2.12.15,3.2.19h.1q1,0,2,0l1.38,0h.51l.34,0c.23,0,.46,0,.68,0,.67,0,1.33-.06,2-.11h.25l.58-.05.17,0c1.18-.1,2.36-.23,3.55-.41q1.27-.18,2.49-.42l.42-.07c.77-.15,1.53-.31,2.27-.48l.43-.11c.75-.17,1.48-.35,2.19-.55l.16,0c.69-.19,1.36-.39,2-.59l.33-.1c.67-.2,1.31-.41,1.94-.62l.39-.13c.63-.21,1.24-.43,1.83-.64l.24-.09,1.64-.61.27-.1,1.63-.64.46-.18,1.5-.59,1.49-.59.13-.05,1.37-.51.25-.1,1.26-.43.2-.07.31-.09.23-.07.2-.06.45-.13h.05c.12,0,.23-.05.35-.08l.59-.14.17,0,.2,0,.1,0c.28,0,.55-.08.82-.1h1.26l.39.06h0l.12,0h.07l.2,0,.12,0h0l.19.06.08,0,.21.08.07,0,0,0,.2.1.11.05.17.1,0,0,.23.17a1.71,1.71,0,0,1,.27.2c1.84,1.58,2.61,4.71,2.4,8.51a34.4,34.4,0,0,1-5.47,16c-.47.74-1,1.46-1.49,2.15a30.09,30.09,0,0,1-3.42,3.79,31,31,0,0,1-15,7.4h0c-.84.18-1.7.32-2.56.44h0c-.52.07-1.05.11-1.58.17l-1.22.13h-.11c-.32,0-.65,0-1,.05l-.57,0-1.29.05h-1.67l-1.31,0-.75,0-.67,0-.27,0-1.2-.1-.19,0-.71-.09c-.53-.06-1.06-.11-1.59-.19l-1-.13-.16,0c-.7-.11-1.4-.25-2.1-.38l-.41-.08-.77-.15-.15,0c-.76-.16-1.52-.36-2.28-.55l-.69-.17-.3-.08c-1.17-.32-2.33-.66-3.49-1-.82-.28-1.64-.57-2.45-.88a58.9,58.9,0,0,1-18.54-11.12c-.65-.59-1.28-1.18-1.88-1.8l-.11-.11c-6-6.17-11.77-15.75-11.2-20.24a3,3,0,0,1,.64-1.59s0,0,.06,0l.1-.08a2.08,2.08,0,0,1,.4-.32s0,0,0,0l.17-.09h0a3.32,3.32,0,0,1,.58-.22l.12,0h0a1.25,1.25,0,0,0,.19,0,5.88,5.88,0,0,1,.64-.08h.32m0-2h-.55a5.93,5.93,0,0,0-.72.1l-.34,0-.11,0h0l-.17.07a4.17,4.17,0,0,0-.67.25h0l-.16.08-.28.16-.18.1-.05,0a4.91,4.91,0,0,0-.46.38l-.08.06a2.4,2.4,0,0,0-.29.28,4.88,4.88,0,0,0-1.13,2.66c-.67,5.36,5.58,15.53,11.76,21.88l.11.1c.58.6,1.22,1.22,2,1.89a61,61,0,0,0,19.18,11.51c.85.32,1.7.63,2.53.9,1.11.38,2.29.73,3.59,1.09l.21.06.1,0,.44.11.27.06c.74.2,1.54.4,2.36.58l.15,0,.5.11.3.05.27,0,.15,0c.68.13,1.42.27,2.16.39l.17,0,.73.11.27,0c.44.07.87.11,1.31.16l.32,0,.26,0,.49.06.19,0,1.24.11h.28l.46,0h.23l.24,0,.55,0q.62,0,1.23,0h1.86l1,0h.33l.59,0,.34,0,.67,0h.12l.87-.09.4,0,.5-.05,1.15-.13.77-.11v0l.72-.15.66-.1v0l.54-.11a32.87,32.87,0,0,0,15.94-7.89,31.71,31.71,0,0,0,3.65-4.05c.54-.72,1.08-1.48,1.59-2.27a36.89,36.89,0,0,0,5.78-17c.25-4.6-.84-8.2-3.09-10.14l-.35-.26-.05,0,0,0-.21-.15-.13-.09-.23-.13-.21-.11-.22-.11,0,0h0l0,0-.11,0-.32-.13-.07,0-.08,0-.25-.08-.22-.07-.28-.07H246l-.15,0h-.09l-.35-.06h0l-.12,0H244l-.22,0h-.15c-.28,0-.58.06-.88.11l-.16,0-.18,0h-.05l-.18,0-.68.15-.09,0-.3.07h-.08l-.32.1-.15,0-.14,0-.07,0h-.06l-.19.06-.1,0-.23.07-.07,0-.14.05c-.42.13-.87.29-1.32.45l-.26.1-1.4.53-.08,0-.06,0-1.49.59-.41.16-1.09.43-.3.11-.16.07-1.62.63-.13,0-.13.05-1.62.6-.11,0-.12.05c-.58.21-1.18.42-1.79.62l-.39.13c-.61.21-1.24.41-1.88.61l-.18.06-.15,0c-.64.2-1.3.39-2,.57l-.1,0h-.05c-.64.18-1.34.35-2.13.54l-.11,0-.31.07c-.73.17-1.47.32-2.2.46l-.24,0-.16,0c-.91.17-1.68.3-2.42.4-1,.16-2.12.28-3.44.4l-.16,0-.36,0H211l-.19,0q-.92.06-1.83.09h-.12l-.33,0h-.32l-.23,0h-.6l-1.34,0c-.67,0-1.32,0-2,0H204c-1,0-2-.09-3.13-.18h-.17l-.51,0h-.07l-.18,0-2.28-.25-.29,0-.21,0h-.06l-.16,0c-1-.14-1.95-.29-2.87-.46l-.28-.06h-.06c-.86-.16-1.69-.33-2.5-.51l-.18,0-.08,0-.19,0-.1,0-.12,0-.2,0c-.68-.15-1.34-.32-2-.49l-.28-.07-.22-.05-.08,0-.16,0-.08,0-.15,0c-1-.26-1.68-.47-2.34-.67l-.17-.06-.18-.06c-.73-.23-1.44-.46-2.14-.7l-.19-.06-.11,0L182,155l-.24-.09c-.58-.2-1.15-.41-1.71-.62l-.21-.08-.48-.18c-.76-.29-1.5-.58-2.21-.88l-1.12-.48-.23-.09-.13-.05-.83-.34-.41-.16-.84-.32-.11,0-.26-.09-1.19-.42H172c-.36-.12-.75-.24-1.13-.34l-.24-.07-.11,0-.34-.09-.12,0-.09,0-.08,0-.19,0-.39-.1-.18,0h-.06l-.11,0h-.07l-.1,0-.28-.06-.09,0-.26,0-.14,0h0c-.31,0-.61-.09-.89-.11h-.4l-.65,0h-.17Z"/><path class="cls-5" d="M168.57,141a27.6,27.6,0,1,1,7.24-1A27.42,27.42,0,0,1,168.57,141Z"/><path class="cls-1" d="M168.57,86.77A26.62,26.62,0,1,1,142,113.39a26.63,26.63,0,0,1,26.62-26.62m0-2a28.62,28.62,0,1,0,7.5,1,28.58,28.58,0,0,0-7.5-1Z"/><path class="cls-5" d="M243.46,142.29a27.63,27.63,0,0,1,0-55.25,27.63,27.63,0,0,1,0,55.25Z"/><path class="cls-1" d="M243.46,88a26.63,26.63,0,1,1-21.25,42.65A26.62,26.62,0,0,1,243.46,88m0-2a28.62,28.62,0,1,0,7.5,1,28.61,28.61,0,0,0-7.5-1Z"/></g><g id="visage"><path class="cls-1" d="M157.42,161.88c-1.43-3.12-2.26-6.18-1.94-8.7a6.81,6.81,0,0,1,1.6-3.72,5.29,5.29,0,0,1,.54-.52l.06-.05a5.84,5.84,0,0,1,.94-.7c.13-.08.27-.15.41-.22l.3-.15.09,0a6.39,6.39,0,0,1,.73-.27h0l.13,0,.15-.06.21,0a4.34,4.34,0,0,1,.52-.09l.57-.08.22,0h.27l.39,0h.23c.24,0,.48,0,.73,0h.61l.87.11h.11l.17,0,.31,0,.08,0,.31.06h0l.09,0h0l.4-2.47-.42-.08-.38-.07-.38-.05c-.29-.05-.6-.09-.86-.11l-.65,0h-.2c-.28,0-.55,0-.73,0h-.38l-.58,0-.51.06c-.22,0-.44,0-.65.09a5.71,5.71,0,0,0-.74.13l-.69.21c-.29.09-.56.19-.84.3l-.64.3c-.2.1-.39.2-.57.31a7.47,7.47,0,0,0-1.25.93,6.91,6.91,0,0,0-.88.83,9.22,9.22,0,0,0-2.2,5.06c-.42,3.28.7,7.06,2.47,10.73C156.14,163.05,156.79,162.47,157.42,161.88Z"/><g id="bouche"><path class="cls-6" d="M247.72,153.06a2.69,2.69,0,0,0-.27-.2l-.23-.17,0,0-.17-.11-.11-.05-.2-.1,0,0-.07,0-.21-.08-.08,0-.19-.06h0l-.12,0-.2,0h-.07l-.12,0h0l-.39-.07h0a1.08,1.08,0,0,0-.18,0c-.12,0-.25,0-.37,0h-.66c-.27,0-.54.06-.82.11H243l-.2,0-.17,0-.59.14-.35.08h-.05l-.45.14a1.17,1.17,0,0,0-.2.06l-.23.06-.31.09-.2.07-1.26.43-.25.1-1.37.51-.13.05-1.49.59-1.5.59-.46.18-1.63.64-.27.1-1.64.61-.24.09c-.59.21-1.2.43-1.83.64l-.39.13-1.94.63-.33.1c-.66.2-1.33.39-2,.58l-.16,0c-.71.2-1.44.38-2.19.56l-.43.1c-.74.17-1.5.33-2.27.48l-.42.08q-1.22.23-2.49.42c-1.19.17-2.37.3-3.55.4l-.17,0-.58.05H211c-.68.05-1.34.08-2,.11l-.68,0h-.34l-.36,0a.75.75,0,0,0-.15,0c-1.16,0-2.3,0-3.42,0h-.1c-1.08,0-2.14-.1-3.2-.18l-.23,0-.47,0-.26,0c-.79-.07-1.57-.16-2.34-.26-.17,0-.35,0-.52-.06h0l-.18,0c-1-.14-2-.3-3-.47l-.37-.07c-.86-.16-1.71-.34-2.54-.52l-.27-.06-.29-.06-.34-.09-2-.5-.51-.13h0l-.24-.07-.23-.07c-.81-.22-1.62-.45-2.4-.69l-.36-.12q-1.12-.35-2.19-.72l-.3-.09h0l-.46-.17-1.75-.63-.7-.27-2.26-.9-1.12-.48-.35-.14-.81-.33-.39-.15-.81-.31-.36-.13-1.14-.39h0l-1.08-.33-.33-.09-.43-.11-.08,0-.25-.06-.36-.08-.21-.05-.1,0h-.07l-.34-.07-.31-.06h-.13c-.28-.05-.57-.09-.83-.11h-.31l-.62,0h-.4a5.8,5.8,0,0,0-.64.09l-.19,0h0l-.12,0a3.32,3.32,0,0,0-.58.22h0l-.17.09,0,0a2.08,2.08,0,0,0-.4.32l-.1.08s0,0-.06.05a2.9,2.9,0,0,0-.64,1.59c-.57,4.48,5.19,14.06,11.2,20.23l.11.11c.6.62,1.23,1.21,1.88,1.8h0a29.19,29.19,0,0,1,4.4-3.08,28.67,28.67,0,0,1,40.2,12.82c.35,0,.71-.07,1.06-.12.6-.08,1.11-.17,1.6-.26A31.5,31.5,0,0,0,213,173.27a28.64,28.64,0,0,1,26.11,3.14,28,28,0,0,1,4,3.3h0c.52-.69,1-1.41,1.49-2.14a34.48,34.48,0,0,0,5.47-16C250.33,157.78,249.56,154.64,247.72,153.06Z"/><path class="cls-7" d="M214.76,192.76l-1.33,0-.77,0-.95-.06-1.22-.1-1.3-.16-1.23-.14-1-.15-.11,0c-.75-.12-1.46-.25-2.17-.39l-1.2-.23-.11,0c-.82-.18-1.59-.37-2.36-.57l-1-.25c-1.28-.35-2.44-.7-3.53-1.07-.84-.28-1.67-.58-2.49-.89a60,60,0,0,1-18.86-11.32l-.78-.7.81-.82.06,0a29.34,29.34,0,0,1,4.48-3.13,29.65,29.65,0,0,1,14.67-3.9c.86,0,1.73,0,2.59.12a29.42,29.42,0,0,1,11.12,3.23,28.51,28.51,0,0,1,2.7,1.58A29.73,29.73,0,0,1,221,185.23l.33,0,.28,0a30.45,30.45,0,0,0-9.19-11.08L210.93,173l1.72-.65A29.46,29.46,0,0,1,223,170.46c.87,0,1.74,0,2.61.11a29.76,29.76,0,0,1,14.08,5,30.63,30.63,0,0,1,4.18,3.42l.29.29v.76l-.21.27a30.34,30.34,0,0,1-3.53,3.92A31.81,31.81,0,0,1,225,191.88l-1.2.25v0l-.24,0v0l-1.18.17c-.37,0-.74.09-1.12.12l-.49.05-.39.05-.86.09h-.12q-.32,0-.63,0l-1.29.07-1,0h-1.7Z"/><path class="cls-1" d="M194.35,169.71c.83,0,1.67,0,2.52.11a28.75,28.75,0,0,1,13.35,4.66,28.83,28.83,0,0,1,10.17,11.82c.35,0,.71-.07,1.06-.12.6-.08,1.11-.17,1.6-.26A31.5,31.5,0,0,0,213,173.27a28.51,28.51,0,0,1,10-1.81c.83,0,1.67,0,2.51.11a28.54,28.54,0,0,1,13.6,4.84,28,28,0,0,1,4,3.3h0a30.09,30.09,0,0,1-3.42,3.79,31,31,0,0,1-15,7.4h0c-.84.17-1.7.31-2.56.43h0c-.52.07-1.05.11-1.58.17s-.81.1-1.22.13h-.11c-.32,0-.65,0-1,.05l-.57,0-1.29.05h-1.67l-1.31,0-.75,0-.67,0-.27,0-1.2-.1-.19,0-.71-.09c-.53-.06-1.06-.11-1.59-.19l-1-.13-.16,0c-.7-.11-1.4-.25-2.1-.38l-.41-.08-.77-.15-.15,0c-.76-.17-1.52-.36-2.28-.56l-.69-.17-.3-.07c-1.17-.33-2.33-.67-3.49-1.06-.82-.28-1.64-.57-2.45-.88a58.9,58.9,0,0,1-18.54-11.12h0a29.19,29.19,0,0,1,4.4-3.08,28.53,28.53,0,0,1,14.16-3.77m0-2h0A30.8,30.8,0,0,0,174.51,175h0l-1.77,1.47,1.7,1.55a61,61,0,0,0,19.18,11.51c.85.32,1.7.63,2.53.91,1.11.37,2.29.73,3.59,1.08l.21.06.1,0,.44.11.27.07c.74.19,1.54.39,2.36.57l.15,0,.5.1.3.05.27.05.15,0c.68.13,1.42.28,2.16.39l.17,0,.73.11.27,0c.44.06.87.11,1.31.15l.32,0,.26,0,.49.06.19,0,1.24.11h.29l.44,0,.24,0h.25l.54,0,1.24,0h1.85l1,0h.33l.59,0,.34,0,.67,0h.12q.44,0,.87-.09l.4,0,.5-.05c.38,0,.77-.07,1.15-.13l.82-.12v.05l.67-.14.71-.1v0l.49-.1A32.87,32.87,0,0,0,241.1,185a31.71,31.71,0,0,0,3.65-4.05l1.1-1.44-1.32-1.22a30.89,30.89,0,0,0-18.85-8.68c-.89-.08-1.79-.12-2.68-.12a30.5,30.5,0,0,0-10.7,1.93l-2,.76c-.57-.34-1.15-.67-1.75-1A30.59,30.59,0,0,0,197,167.83c-.89-.08-1.8-.12-2.69-.12Z"/></g><g id="oeil"><path class="cls-5" d="M157.7,122.91l15.54-9.61-15.86-8.72a26.69,26.69,0,0,1,18.17-17,26.62,26.62,0,0,0-29.14,11,26.62,26.62,0,0,0,22.16,41.36,26.72,26.72,0,0,0,7-.93A26.67,26.67,0,0,1,157.7,122.91Z"/><path class="cls-1" d="M175.55,87.61a26.69,26.69,0,0,0-18.17,17l15.86,8.72-15.54,9.61A26.67,26.67,0,0,0,175.55,139a26.62,26.62,0,0,0,0-51.38Z"/></g><g id="oeil-2" data-name="oeil"><path class="cls-5" d="M232.59,124.18l15.54-9.6-15.87-8.72a26.68,26.68,0,0,1,18.18-17,26.62,26.62,0,1,0-7,52.31,26.78,26.78,0,0,0,7-.93A26.66,26.66,0,0,1,232.59,124.18Z"/><path class="cls-1" d="M250.44,88.89a26.68,26.68,0,0,0-18.18,17l15.87,8.72-15.54,9.6a26.66,26.66,0,0,0,17.85,16.09,26.62,26.62,0,0,0,0-51.38Z"/></g></g><g id="sous_nez" data-name="sous nez"><path class="cls-5" d="M210,150.44c-8.49,0-18.2-2.63-19.08-6.88-.32-1.53.42-3.46,2.15-5.58,4-4.9,12.4-10,19.61-10a12.24,12.24,0,0,1,6.79,1.89c4.57,3,8,10.37,5.45,15.06C223,148.44,217.55,150.44,210,150.44Z"/><path class="cls-1" d="M212.66,129a11.22,11.22,0,0,1,6.24,1.73c4.36,2.84,7.36,9.67,5.13,13.74-1.95,3.53-7.83,5-14.05,5-8.39,0-17.38-2.59-18.1-6.08-.94-4.49,11-14.35,20.78-14.35h0m0-2h0c-7.5,0-16.26,5.26-20.39,10.34-2,2.39-2.74,4.55-2.35,6.41,1.16,5.59,12.92,7.68,20.06,7.68,4.67,0,12.93-.78,15.8-6s-.76-13.1-5.79-16.38a13.16,13.16,0,0,0-7.33-2Z"/></g><g id="nez"><path id="nez-2" data-name="nez" class="cls-7" d="M212.66,128.92a11.24,11.24,0,0,1,6.24,1.73c4.36,2.84,7.36,9.67,5.13,13.74-1.95,3.53-7.83,5-14.05,5-8.39,0-17.38-2.59-18.1-6.08-.94-4.49,11-14.35,20.78-14.35"/><path class="cls-5" d="M208.32,134.86c-.33-1.58,4.9-5.49,7.76-3.62,1.25.81,2.11,2.78,1.47,3.94C216.24,137.57,208.68,136.61,208.32,134.86Z"/></g></g></g></svg>